<svg xmlns="http://www.w3.org/2000/svg" xmlns:xlink="http://www.w3.org/1999/xlink" width="225" height="138.266" viewBox="0 0 225 138.266"><defs><style>.a{fill:none;}.b,.f,.g,.h,.i,.j{opacity:0.85;}.b{fill:url(#a);}.c,.e{isolation:isolate;}.c{clip-path:url(#e);}.d{clip-path:url(#f);}.e{clip-path:url(#g);}.g{clip-path:url(#j);}.h{clip-path:url(#m);}.i{clip-path:url(#p);}.j{clip-path:url(#r);}</style><linearGradient id="a" x1="0.5" x2="0.5" y2="1" gradientUnits="objectBoundingBox"><stop offset="0" stop-color="#ad712f"/><stop offset="1" stop-color="#f1bf75"/></linearGradient><clipPath id="e"><rect class="a" x="13" y="36" width="225" height="138.266"/></clipPath><clipPath id="f"><rect class="a" width="257" height="180.266"/></clipPath><clipPath id="g"><rect class="a" x="13" y="33" width="231" height="145.266"/></clipPath><clipPath id="j"><rect class="b" width="68" height="52" rx="8" transform="matrix(0.848, -0.53, 0.53, 0.848, 155, 242.858)"/></clipPath><clipPath id="m"><rect class="b" width="68" height="52" rx="8" transform="matrix(0.848, -0.53, 0.53, 0.848, 221.777, 128.035)"/></clipPath><clipPath id="p"><rect class="b" width="68" height="52" rx="8" transform="matrix(0.848, -0.53, 0.53, 0.848, 118, 119.725)"/></clipPath><clipPath id="r"><rect class="b" width="68" height="52" rx="8" transform="matrix(0.848, -0.53, 0.53, 0.848, 54, 162.725)"/></clipPath></defs><g class="c" transform="translate(-13 -36)"><g class="d"><g transform="translate(-54 -83.69)"><g class="e" transform="translate(54 83.69)"><g transform="translate(-54 -83.69)"><g class="f" transform="translate(0 -69)"><rect class="b" width="247" height="145" rx="8" transform="translate(64 185)"/></g><rect class="b" width="68" height="52" rx="8" transform="matrix(0.848, -0.53, 0.53, 0.848, 221, 202.791)"/><g class="g"><g class="f" transform="translate(0 -69)"><rect class="b" width="247" height="145" rx="8" transform="translate(64 185)"/></g></g><rect class="b" width="68" height="52" rx="8" transform="matrix(0.848, -0.53, 0.53, 0.848, 91, 208.168)"/><g class="h"><g class="f" transform="translate(13 -4)"><rect class="b" width="247" height="145" rx="8" transform="translate(51 120)"/></g></g><rect class="b" width="68" height="52" rx="8" transform="matrix(0.848, -0.53, 0.53, 0.848, 155, 168.101)"/><g class="i"><g class="f" transform="translate(0 -69)"><rect class="b" width="247" height="145" rx="8" transform="translate(64 185)"/></g></g><g class="j"><g class="f" transform="translate(0 -69)"><rect class="b" width="247" height="145" rx="8" transform="translate(64 185)"/></g></g></g></g></g></g></g></svg>