<svg xmlns="http://www.w3.org/2000/svg" xmlns:xlink="http://www.w3.org/1999/xlink" width="342.1" height="227.672" viewBox="0 0 342.1 227.672"><defs><clipPath id="a"><rect x="228" width="342.1" height="227.672" fill="none"/></clipPath><clipPath id="b"><rect width="559.1" height="227.672" fill="none"/></clipPath><linearGradient id="c" x1="0.5" y1="1" x2="0.5" gradientUnits="objectBoundingBox"><stop offset="0" stop-color="gray" stop-opacity="0.251"/><stop offset="0.54" stop-color="gray" stop-opacity="0.122"/><stop offset="1" stop-color="gray" stop-opacity="0.102"/></linearGradient><linearGradient id="d" x1="0.001" y1="0.5" x2="1" y2="0.5" xlink:href="#c"/><linearGradient id="e" x1="0.5" x2="0.5" y2="1" gradientUnits="objectBoundingBox"><stop offset="0" stop-color="#ad712f"/><stop offset="1" stop-color="#f1bf75"/></linearGradient></defs><g transform="translate(-228)" clip-path="url(#a)" style="isolation:isolate"><g clip-path="url(#b)"><g transform="translate(210.533 -86.527)"><g transform="translate(26.02 112.98)"><path d="M333.85,214.95a66.145,66.145,0,0,1-1.937,15.96q-.652,2.636-1.515,5.168a61.567,61.567,0,0,1-2.444,6.117q-.7,1.51-1.477,2.965a39.9,39.9,0,0,1-3.335,16.029,41.342,41.342,0,0,1-20.055,20.663,42.2,42.2,0,0,1-17.925,4.111H72.349a53.622,53.622,0,0,1-26.971-7.207q-1.817-1.052-3.541-2.242a53.552,53.552,0,0,1-7.007-5.777,52.144,52.144,0,0,1-7.7-9.556,50.934,50.934,0,0,1-7.835-27.193,64.129,64.129,0,0,1-8.221-31.756,62.931,62.931,0,0,1,12.718-38.517,54.15,54.15,0,0,1,5.4-6.01,50.264,50.264,0,0,1,6.177-5.056,47.668,47.668,0,0,1,5.481-3.289c.792-.406,1.587-.784,2.4-1.137.71-.315,1.428-.608,2.154-.885q1.307-.5,2.647-.913t2.645-.729q1.918-.469,3.9-.762c1.1-.162,2.192-.274,3.289-.362q1.307-.093,2.636-.11H61c.976,0,1.946.038,2.908.1.1-.2.211-.408.312-.611.384-.729.781-1.458,1.181-2.173v-.019c.069-.123.137-.247.208-.367.323-.584.66-1.162,1.006-1.735.159-.274.315-.532.477-.792.036-.063.071-.123.112-.186q.247-.411.5-.822,1.269-2.025,2.639-3.987c.079-.112.153-.222.233-.332.143-.2.274-.4.433-.6.378-.529.767-1.061,1.159-1.584.274-.37.548-.74.844-1.1q1.069-1.381,2.192-2.74c.748-.9,1.537-1.814,2.335-2.7.11-.123.219-.244.334-.367l1.17-1.274h0c.058-.06.107-.115.162-.17h0c.14-.151.274-.3.425-.449.628-.663,1.272-1.318,1.918-1.965a104.466,104.466,0,0,1,10.534-9.153c.145-.115.293-.225.438-.334.7-.526,1.4-1.044,2.11-1.554a111.492,111.492,0,0,1,12.17-7.591c.29-.164.586-.321.885-.477a116.812,116.812,0,0,1,11.644-5.36q3.25-1.285,6.615-2.4c1.485-.485,2.976-.948,4.486-1.37q3.5-1.006,7.092-1.814a126.981,126.981,0,0,1,21.441-2.921q3.288-.173,6.651-.173A127.432,127.432,0,0,1,197.677,91.5a1.156,1.156,0,0,0,.995.518h.921c.4.107.8.219,1.2.334q3.352.967,6.607,2.107l.548.2a117.949,117.949,0,0,1,15.6,6.851,112.923,112.923,0,0,1,13.058,8.068q.962.691,1.9,1.395,1.135-.732,2.307-1.395a45.38,45.38,0,0,1,9.559-4.072,43.6,43.6,0,0,1,21.441-.839,47.444,47.444,0,0,1,24.023,13.549,56.056,56.056,0,0,1,7.213,9.12c.151.236.3.474.447.715a60.291,60.291,0,0,1,4.587,9.15c.047.115.093.227.134.343a63.332,63.332,0,0,1,2.823,9.139c.033.156.071.315.1.474a65.8,65.8,0,0,1,1.348,9.145,1.732,1.732,0,0,0,.022.334q.173,2.387.175,4.826c0,1.452-.049,2.894-.14,4.322,0,.156-.022.321-.036.48-.025.417-.06.822-.1,1.241a51.988,51.988,0,0,1,5.859,5.525q1.2,1.307,2.318,2.716a57.59,57.59,0,0,1,5.974,9.145A64.376,64.376,0,0,1,333.85,214.95Z" transform="translate(-11.09 -87.42)" fill="#ce9751" opacity="0.1"/><path d="M385.729,659.781c0,6.229-6.457,12.058-17.722,17.078H155.2a43.4,43.4,0,0,1-26.971-9.775,11.34,11.34,0,0,1-3.034-7.306c0-6.621,7.3-12.8,19.923-18.024h0l.356-.142c3.563-1.461,7.544-2.839,11.9-4.135.11-.033.222-.063.332-.1h0q5.179-1.521,11.019-2.883c.123-.027.244-.057.367-.079,1.5-.356,3.034-.688,4.6-1.019h0l.6-.126a343.371,343.371,0,0,1,38.366-5.508h.016q2.949-.274,5.96-.491c2.233-.178,4.494-.329,6.78-.469,1.746-.112,3.513-.208,5.286-.3a.052.052,0,0,1,.041,0c8-.4,16.265-.614,24.716-.614a455.324,455.324,0,0,1,58.155,3.563.139.139,0,0,1,.049,0c2.691.351,5.333.721,7.909,1.115.737.115,1.472.23,2.192.348q4.36.7,8.5,1.488h0C364.671,638.567,385.729,648.54,385.729,659.781Z" transform="translate(-93.936 -478.311)" fill="#ce9751" opacity="0.1"/><path d="M737.065,208.957s-2.9-1.176-12.124,3.053-10.375,3.694-12.762,3.058-3.719-.8-6.278-4.333c0,0-1.806-9.786-3.563-11.3s-9.172.866-9.172.866-8.9,2.042-10.6-9.866c0,0,1.2-8.967-.436-11.718,0,0,3.311,1.425,8.769-.877s9.83,2.48,9.83,2.48,1.37,3.563,1.233,5.689.729,2.924,3.332,1.9c0,0,1.28-1.82-.532-4.829s-3.1-5.248-2.6-7.583a9.419,9.419,0,0,1,6.632-7.2c4.672-1.62,11.017-1.918,14.061-3.2s3.8-2.1,3.8-2.1-1.875,1.877,2.54,9.838,1.6,11.414,1.6,11.414-2.349,5.6-12.718,5.144c0,0-9.992.364-4.544,4.6,0,0,3.489-.71,8.7-2.368s8.98,5.185,9.915,9.945A12.534,12.534,0,0,0,737.065,208.957Z" transform="translate(-498.25 -142.274)" fill="#ce9751"/><path d="M812.731,184.956l.055-.016c.4,1.518-4.064,7.624-7.881,12.477l-.044-.036C810.242,190.547,813.04,186.132,812.731,184.956Z" transform="translate(-587.347 -158.201)" fill="#444053"/><path d="M776.32,230l.025.06c-3.05,3.875-6.884,8.5-9.953,11.929-.293.326-.584.669-.863,1.019l-.088-.071c.274-.351.573-.7.866-1.022C769.373,238.5,773.267,233.878,776.32,230Z" transform="translate(-558.73 -190.913)" fill="#444053"/><path d="M746.937,276.89l.06.1c-5.585,6.974-5.955,17.813-5.969,17.9l-1.178-1.37C739.864,293.434,741.313,283.914,746.937,276.89Z" transform="translate(-540.152 -224.953)" fill="#444053"/><path d="M743.813,256.326s-6.577-3.426-11.718-2.192-16.7-4.357-16.7-4.357-4.905-1.992-5.892-4.264c0,0-3.368-3.563-3.563-5.4s-3.469-6.473-5.607-6.651" transform="translate(-511.462 -193.424)" fill="none" stroke="#444053" stroke-miterlimit="10" stroke-width="1"/><path d="M847.627,316.11s-3.316-2.236-2.93-4.84" transform="translate(-616.244 -249.911)" fill="none" stroke="#444053" stroke-miterlimit="10" stroke-width="1"/><path d="M823.117,317.013s-4.744-1.721-5.207-8.473" transform="translate(-596.82 -247.929)" fill="none" stroke="#444053" stroke-miterlimit="10" stroke-width="1"/><path d="M800.168,318.471a10.614,10.614,0,0,1-3.028-10.331" transform="translate(-581.52 -247.639)" fill="none" stroke="#444053" stroke-miterlimit="10" stroke-width="1"/><path d="M771.586,311.459s-3.015-6.33-.332-10.449" transform="translate(-562.143 -242.463)" fill="none" stroke="#444053" stroke-miterlimit="10" stroke-width="1"/><path d="M851.821,301.67s-3.428,1.1-2.694,2.894" transform="translate(-619.408 -242.942)" fill="none" stroke="#444053" stroke-miterlimit="10" stroke-width="1"/><path d="M831.687,279s-4.59,1.455-4.7,7.947" transform="translate(-603.412 -226.484)" fill="none" stroke="#444053" stroke-miterlimit="10" stroke-width="1"/><path d="M810.47,273.48s-4.179,5.158-3.872,9.844" transform="translate(-588.596 -222.477)" fill="none" stroke="#444053" stroke-miterlimit="10" stroke-width="1"/><path d="M784.357,280.86s-4.149,3.968-3.62,6.174" transform="translate(-569.8 -227.835)" fill="none" stroke="#444053" stroke-miterlimit="10" stroke-width="1"/><path d="M773.187,274.211s-3.891.7-4.437-.581" transform="translate(-561.132 -222.586)" fill="none" stroke="#444053" stroke-miterlimit="10" stroke-width="1"/><path d="M766.49,258.61s1.965,2.6,2.466,2.02" transform="translate(-559.492 -211.682)" fill="none" stroke="#444053" stroke-miterlimit="10" stroke-width="1"/><path d="M805.74,246.647s-9.811.713-12.031-2.247" transform="translate(-579.252 -201.366)" fill="none" stroke="#444053" stroke-miterlimit="10" stroke-width="1"/><path d="M759,210.73s4.6,9.879,7.947,11.137" transform="translate(-554.054 -176.923)" fill="none" stroke="#444053" stroke-miterlimit="10" stroke-width="1"/><path d="M776.58,193.56s2.825,9.087,6.328,11.924" transform="translate(-566.817 -164.459)" fill="none" stroke="#444053" stroke-miterlimit="10" stroke-width="1"/><path d="M821.047,225.128s-7.459,3.2-11.937-.038" transform="translate(-590.432 -187.348)" fill="none" stroke="#444053" stroke-miterlimit="10" stroke-width="0.75"/><path d="M800.82,186.49s1.7,6.678,4,8.293" transform="translate(-584.414 -159.326)" fill="none" stroke="#444053" stroke-miterlimit="10" stroke-width="0.75"/><path d="M833.315,197.92s-4.193,1.589-5.755.373" transform="translate(-603.826 -167.624)" fill="none" stroke="#444053" stroke-miterlimit="10" stroke-width="0.75"/><path d="M749.184,266.57s0,5.823-1.584,6.237" transform="translate(-545.778 -217.461)" fill="none" stroke="#444053" stroke-miterlimit="10" stroke-width="1"/><path d="M706.09,286.92s6.3.548,9.2-2.71" transform="translate(-515.644 -230.267)" fill="none" stroke="#444053" stroke-miterlimit="10" stroke-width="1"/><path d="M732.288,241.47s-1.524,5.906-5.727,7.5" transform="translate(-530.504 -199.239)" fill="none" stroke="#444053" stroke-miterlimit="10" stroke-width="1"/><path d="M692.31,265.055a8.247,8.247,0,0,0,8.29-2.4" transform="translate(-505.64 -214.622)" fill="none" stroke="#444053" stroke-miterlimit="10" stroke-width="1"/><path d="M721.036,222.94s-.419,5.015-3.146,7.364" transform="translate(-524.21 -185.787)" fill="none" stroke="#444053" stroke-miterlimit="10" stroke-width="1"/><path d="M692.93,240.381s3.7.025,4.563-1.181" transform="translate(-506.091 -197.591)" fill="none" stroke="#444053" stroke-miterlimit="10" stroke-width="1"/><rect width="105.288" height="53.148" transform="translate(108.29 61.833)" fill="#33323d"/><rect width="171.217" height="34.984" transform="translate(75.493 131.128)" fill="#33323d"/><path d="M375.661,510.35h87.8l17.492,58.867H357.16Z" transform="translate(-259.297 -370.478)" fill="#fff"/><path d="M257.73,402.33v55.839h32.8V425.879H405.906v32.291h32.8V402.33Z" transform="translate(-187.115 -292.06)" fill="#504f60"/><rect width="180.973" height="18.164" transform="translate(70.615 110.27)" fill="#33323d" opacity="0.1"/><circle cx="2.691" cy="2.691" r="2.691" transform="translate(239.144 116.664)" fill="#8ccf4d" opacity="0.8"/><circle cx="2.691" cy="2.691" r="2.691" transform="translate(227.034 116.664)" fill="#fa5959" opacity="0.8"/><rect width="97.551" height="57.856" transform="translate(112.16 49.049)" fill="#fff"/><path d="M785.421,564.573c.206,2.239-1.485,4.412-.992,6.6.1.469.307.913.381,1.37.2,1.3-.573,2.535-1.315,3.626l-6.366,9.367a5.814,5.814,0,0,1-.91,1.124c-1.219,1.1-3.045.97-4.642,1.294a7.968,7.968,0,0,0-3.11,1.37.2.2,0,0,0-.041.274,2.677,2.677,0,0,0,2.313,1.1c.167.219,0,.548-.23.7-.343.236-.822.3-.88.88a.965.965,0,0,0,.115.584,1.811,1.811,0,0,0,1.115.773c2.192.674,4.585-.51,6.234-2.121s2.834-3.645,4.453-5.286c.9-.907,1.918-1.685,2.839-2.565a31.873,31.873,0,0,0,4.659-6.029,6.633,6.633,0,0,0,1.009-2.053c.17-.729.093-1.5.29-2.223a8.21,8.21,0,0,1,1.526-2.494,8.239,8.239,0,0,0,1.735-5.377,5.149,5.149,0,0,0-3.143-4.459,2.819,2.819,0,0,0-1.762-.107,4.18,4.18,0,0,0-1.795,1.428l-1.209,1.395a3.369,3.369,0,0,0-.7,1.072,1.115,1.115,0,0,0,.249,1.189" transform="translate(-560.871 -431.081)" fill="#fbbebe"/><path d="M785.421,564.573c.206,2.239-1.485,4.412-.992,6.6.1.469.307.913.381,1.37.2,1.3-.573,2.535-1.315,3.626l-6.366,9.367a5.814,5.814,0,0,1-.91,1.124c-1.219,1.1-3.045.97-4.642,1.294a7.968,7.968,0,0,0-3.11,1.37.2.2,0,0,0-.041.274,2.677,2.677,0,0,0,2.313,1.1c.167.219,0,.548-.23.7-.343.236-.822.3-.88.88a.965.965,0,0,0,.115.584,1.811,1.811,0,0,0,1.115.773c2.192.674,4.585-.51,6.234-2.121s2.834-3.645,4.453-5.286c.9-.907,1.918-1.685,2.839-2.565a31.873,31.873,0,0,0,4.659-6.029,6.633,6.633,0,0,0,1.009-2.053c.17-.729.093-1.5.29-2.223a8.21,8.21,0,0,1,1.526-2.494,8.239,8.239,0,0,0,1.735-5.377,5.149,5.149,0,0,0-3.143-4.459,2.819,2.819,0,0,0-1.762-.107,4.18,4.18,0,0,0-1.795,1.428l-1.209,1.395a3.369,3.369,0,0,0-.7,1.072,1.115,1.115,0,0,0,.249,1.189" transform="translate(-560.871 -431.081)" opacity="0.05"/><path d="M833.386,777.9a7.365,7.365,0,0,1-4.741.7c-.274-.03-.567-.049-.734.151-.241.293.044.721.337.956a7.053,7.053,0,0,0,3.258,1.34,22.054,22.054,0,0,0,3.184.211,53.979,53.979,0,0,0,8.7-.321,1.176,1.176,0,0,0,.474-.14.88.88,0,0,0,.359-.548,2.161,2.161,0,0,0-.754-2.069,6.559,6.559,0,0,0-2.031-1.1l-2.527-.984a6.522,6.522,0,0,0-2.192-.8C835.542,775.4,834.389,777.312,833.386,777.9Z" transform="translate(-604.015 -586.777)" fill="#3f3d56"/><path d="M833.386,777.9a7.365,7.365,0,0,1-4.741.7c-.274-.03-.567-.049-.734.151-.241.293.044.721.337.956a7.053,7.053,0,0,0,3.258,1.34,22.054,22.054,0,0,0,3.184.211,53.979,53.979,0,0,0,8.7-.321,1.176,1.176,0,0,0,.474-.14.88.88,0,0,0,.359-.548,2.161,2.161,0,0,0-.754-2.069,6.559,6.559,0,0,0-2.031-1.1l-2.527-.984a6.522,6.522,0,0,0-2.192-.8C835.542,775.4,834.389,777.312,833.386,777.9Z" transform="translate(-604.015 -586.777)" opacity="0.05"/><path d="M849.477,624.283c-1.05,1.4-2.14,3.014-1.88,4.749a10.555,10.555,0,0,0,1.047,2.623,18.472,18.472,0,0,1,1.061,3.683c.395,1.833.789,3.672,1.03,5.533.274,2.1-1.014,8.183-1.135,10.3a2.18,2.18,0,0,1-.444,1.431c-.14.145-.326.274-.386.452a.759.759,0,0,0,.082.532,5.9,5.9,0,0,0,3.157,2.9,25.039,25.039,0,0,0,6.092,1.6,1.152,1.152,0,0,0,.573-.077,1.1,1.1,0,0,0,.444-.507c1.058-2.02.041-9.211.058-11.493,0-1.918.463-3.793.381-5.695-.069-1.526-.477-3.014-.625-4.538a26.747,26.747,0,0,1,.674-7.468c.351-1.888.7-3.779,1.151-5.648a10.89,10.89,0,0,1,1.22-3.289c.5-.786,1.17-1.441,1.737-2.192a9.865,9.865,0,0,0,1.943-7.229c-.033-.252-3.65.918-3.965,1.055a12.417,12.417,0,0,0-3.532,2.275,32.125,32.125,0,0,0-2.228,2.754q-1.554,1.891-3.067,3.812Q851.146,622.058,849.477,624.283Z" transform="translate(-618.344 -466.718)" fill="#464353"/><path d="M849.477,624.031c-1.05,1.4-2.14,3.014-1.88,4.752a10.579,10.579,0,0,0,1.047,2.62,18.53,18.53,0,0,1,1.061,3.683c.395,1.833.789,3.672,1.03,5.533.274,2.1-1.014,8.186-1.135,10.3a2.172,2.172,0,0,1-.444,1.428c-.14.145-.326.274-.386.452a.77.77,0,0,0,.082.548,5.894,5.894,0,0,0,3.157,2.9A24.124,24.124,0,0,0,858.1,657.4a1.153,1.153,0,0,0,.573-.077,1.1,1.1,0,0,0,.444-.507c1.058-2.02.041-8.753.058-11.033,0-1.918.463-3.8.381-5.7-.069-1.526-.477-3.014-.625-4.538a26.718,26.718,0,0,1,.674-7.465c.351-1.891.7-3.782,1.151-5.651a10.889,10.889,0,0,1,1.22-3.289c.5-.784,1.17-1.441,1.737-2.176a9.885,9.885,0,0,0,1.943-7.229c-.033-.255-3.65.915-3.965,1.055a12.349,12.349,0,0,0-3.532,2.28,34.7,34.7,0,0,0-2.228,2.74q-1.554,1.891-3.067,3.815Q851.146,621.817,849.477,624.031Z" transform="translate(-618.344 -466.557)" opacity="0.05"/><circle cx="5.9" cy="5.9" r="5.9" transform="translate(213.534 114.932)" fill="#fbbebe"/><path d="M816.321,524.4a7.657,7.657,0,0,0,4.9,3.426l-.444,1.609c-.767,2.776-1.644,5.711-3.774,7.635a3.575,3.575,0,0,0-.6-2.76,10.581,10.581,0,0,0-2-2.094l-3.4-2.954a1.015,1.015,0,0,1-.255-.274.88.88,0,0,1,0-.647c.433-1.346,1.669-2.192,2.669-3.1a9.492,9.492,0,0,0,1.343-1.565C815.455,522.714,815.874,523.681,816.321,524.4Z" transform="translate(-591.576 -403.817)" fill="#fbbebe"/><path d="M779.558,494.137l-.132-1.1c.932.241,1.814-.548,2.409-1.37s1.148-1.787,2.055-2.127c1.1-.417,2.269.249,3.321.8a10.522,10.522,0,0,0,3.815,1.247,2.464,2.464,0,0,1,.63.1,2.18,2.18,0,0,1,1.11,1.883,7.257,7.257,0,0,0,.411,2.3c.255.526.7.918.965,1.436.721,1.4.025,3.3.786,4.675l-1.891-1.735c-.175-.159-.419-.323-.608-.189s-.162.337-.225.521a.989.989,0,0,1-1.346.491,3.685,3.685,0,0,1-1.2-1.1,7.322,7.322,0,0,0-3.014-2.275,3.853,3.853,0,0,0-3.176.189c-.882.5-1.529,1.661-2.609,1.7-1.483.055-2.1-2.7-2.787-3.8a1.343,1.343,0,0,0,.389-1.674C778.58,494.082,779.539,493.959,779.558,494.137Z" transform="translate(-567.898 -379.236)" fill="#464353"/><path d="M859.483,775.584a6.237,6.237,0,0,1-4.242,1.581c-.4,0-.948.077-.951.474a.636.636,0,0,0,.115.329,3.9,3.9,0,0,0,2.192,1.716,7.79,7.79,0,0,0,2.647.17l2.59-.134c.488-.027.978-.052,1.466-.112s1.014-.162,1.524-.236a19.937,19.937,0,0,1,3.771-.178,1.119,1.119,0,0,0,.929-.252c.208-.252.1-.707.019-1.071-.153-.751,0-1.537-.143-2.291a4.033,4.033,0,0,0-2.642-2.814c-1.165-.444-3.231-.951-4.335-.214C861.24,773.345,860.527,774.639,859.483,775.584Z" transform="translate(-623.231 -584.509)" fill="#3f3d56"/><path d="M868.78,608.7c.23,1.1,1.28,1.918,1.313,3.014a4.75,4.75,0,0,1-1.066,2.4,15.888,15.888,0,0,0-1.1,2.466,37.707,37.707,0,0,1-3.2,6.344,5.038,5.038,0,0,0-1.148,3.141,4.706,4.706,0,0,0,.548,1.5l1.822,3.62a10.407,10.407,0,0,1,.932,2.288c.156.688.173,1.4.274,2.1.288,2.22,1.329,4.456.715,6.607-.055.186-.247.411-.392.274a6.834,6.834,0,0,1,1.039,3.532,4.857,4.857,0,0,0,.019,1.99,2.161,2.161,0,0,1,.274.784c0,.181-.085.353-.1.548a1.172,1.172,0,0,0,.91,1.1c.491.156,1.019.151,1.513.3a9.1,9.1,0,0,1,2.439,1.666,5.127,5.127,0,0,0,2.8.913.7.7,0,0,0,.411-.082.668.668,0,0,0,.23-.5,2.778,2.778,0,0,0-1-2.414,1.116,1.116,0,0,1-.37-.389.932.932,0,0,1-.036-.436,32.533,32.533,0,0,0-.107-5.98,9.032,9.032,0,0,1-.1-1.9,7.4,7.4,0,0,0,.153-1.584,8.476,8.476,0,0,0-.485-1.515,10.881,10.881,0,0,1-.233-2.823,24.614,24.614,0,0,0-.8-4.856,3.63,3.63,0,0,0-.756-1.754c-.378-.395-.989-.776-.847-1.3a1.508,1.508,0,0,1,.345-.518,2.08,2.08,0,0,0,.436-1.587.707.707,0,0,0,.822-.384,12.76,12.76,0,0,0,6.413-7.292,2.417,2.417,0,0,1,.274-.649,2.964,2.964,0,0,1,1.173-.762,8.9,8.9,0,0,0,3.086-3.143,7.3,7.3,0,0,0,1.189-2.283,7.487,7.487,0,0,0,.164-1.644l.074-2.855a1.539,1.539,0,0,0-.055-.548,1.324,1.324,0,0,0-.307-.452,5.5,5.5,0,0,0-3.014-1.644c-.778-.14-1.573-.112-2.359-.178a29.957,29.957,0,0,0-4.56-.488,7.3,7.3,0,0,0-5.667,3.963C870.048,608.038,869.632,608.7,868.78,608.7Z" transform="translate(-629.962 -461.912)" fill="#464353"/><path d="M826.984,538.427a3.133,3.133,0,0,1-.173,1.3.909.909,0,0,1-1.066.548c.123-.274-.206-.6-.51-.565a.948.948,0,0,0-.674.573,2.126,2.126,0,0,0-.195,1.318,5.329,5.329,0,0,1,.334,1.644c-.069.466-.411.932-.227,1.37a2.219,2.219,0,0,0,.438.526,1.485,1.485,0,0,1-.156,2.042l4.6.09a3.248,3.248,0,0,0,.57,2.239,14.1,14.1,0,0,0,10.51,6.851.918.918,0,0,0-.219,1.4,1.3,1.3,0,0,0,1.474.082,10.788,10.788,0,0,0,1.266-.945,3.867,3.867,0,0,1,2.6-.7c.575.055,1.135.241,1.713.274,1.7.09,3.168-1.135,4.8-1.644,1.195-.367,2.546-.367,3.563-1.113a1.413,1.413,0,0,0,.66-1.37,2.271,2.271,0,0,0-.5-.806,13.652,13.652,0,0,1-1.329-2.491,14.93,14.93,0,0,0-3.324-4.45,29.851,29.851,0,0,0-3.289-2.5,5.783,5.783,0,0,0-.893-.548,9.359,9.359,0,0,1-1.222-.5,6.187,6.187,0,0,1-1.266-1.425c-.913-1.063-2.313-1.554-3.437-2.39a8.432,8.432,0,0,0-2.318-1.57c-.436-.131-.9-.142-1.34-.274-.992-.3-1.715-1.184-2.691-1.54a11.423,11.423,0,0,0-2.439-.31,5.636,5.636,0,0,1-2.5-.951,3.014,3.014,0,0,0-.822-.471c-1.23-.375-1.332,1.918-1.447,2.716A24.486,24.486,0,0,0,826.984,538.427Z" transform="translate(-601.485 -410.209)" fill="#ce9751"/><path d="M793.261,573.363c.206,2.239-1.485,4.409-.992,6.6.1.469.307.913.381,1.37.206,1.3-.573,2.535-1.315,3.623l-6.366,9.345a5.816,5.816,0,0,1-.91,1.124c-1.219,1.1-3.045.97-4.642,1.293a7.989,7.989,0,0,0-3.11,1.37.2.2,0,0,0-.041.274,2.669,2.669,0,0,0,2.313,1.1c.167.222,0,.548-.23.7-.343.238-.822.3-.88.882a.965.965,0,0,0,.115.584,1.822,1.822,0,0,0,1.115.773c2.192.674,4.585-.51,6.234-2.121s2.834-3.645,4.456-5.286c.9-.907,1.918-1.685,2.836-2.565a32.331,32.331,0,0,0,4.659-6.029,6.662,6.662,0,0,0,1.008-2.053c.17-.729.093-1.5.291-2.223a8.179,8.179,0,0,1,1.526-2.494,8.239,8.239,0,0,0,1.735-5.377A5.149,5.149,0,0,0,798.3,569.8a2.8,2.8,0,0,0-1.762-.107,4.2,4.2,0,0,0-1.795,1.428l-1.208,1.395a3.312,3.312,0,0,0-.7,1.072,1.11,1.11,0,0,0,.247,1.187" transform="translate(-566.562 -437.445)" fill="#fbbebe"/><path d="M839.229,549.578a3.5,3.5,0,0,0-2.351.729,3.38,3.38,0,0,0-.592.926,9.264,9.264,0,0,0-1.173,3.694,17.447,17.447,0,0,0,.425,3.088,11.329,11.329,0,0,1-.274,2.592,18.017,18.017,0,0,0,3.352-1.288,11.1,11.1,0,0,1,1.959-1.019c1-.332,2.68.238,3.623.707.052-.669-.447-1.828-.395-2.5a2.823,2.823,0,0,1,.148-.822,5.053,5.053,0,0,1,.5-.8,3.267,3.267,0,0,0-.293-3.837,5.268,5.268,0,0,0-3.42-1.45,14.835,14.835,0,0,0-2.39-.085" transform="translate(-609.307 -422.859)" fill="#ce9751"/><path d="M280.617,364.943l-5.4-7.838a7.387,7.387,0,0,0-.455-2.392c-.354-.452-.077-1.461-.077-1.461s.381-.548.052-.606-.052-1.285-.052-1.285l-.025-1.965a6.894,6.894,0,0,0,.052-2.343.743.743,0,0,1,.025-.808s.3-1.082,0-1.37-.227-1.965-.153-3.3a5.017,5.017,0,0,0-.529-2.291c0-.2-2-2.168-2-2.346a4.842,4.842,0,0,0-2.022-1.1c-.759-.189-1.135-.354-1.11-.455s-1.187-.5-1.187-.5a2.4,2.4,0,0,1-1.466-.606c-.406-.529-1.644-.682-1.674-.688l-.025-.1a.569.569,0,0,0-.022-.115,5.308,5.308,0,0,0,.274-.493l.071-.153a2.143,2.143,0,0,0,1.241-.386,1.68,1.68,0,0,0,.606-1.209,2.642,2.642,0,0,0-.3-1.343,2.249,2.249,0,0,1-.433-1.417c.049-.211.175-.4.241-.606a1.6,1.6,0,0,0-.181-1.195c-.192-.365-.458-.688-.671-1.041a4.111,4.111,0,0,1-.534-1.474,2.272,2.272,0,0,0-.195-.8,1.5,1.5,0,0,0-.444-.447,4.434,4.434,0,0,0-2.716-.822,13.284,13.284,0,0,1-2.055.123,7.367,7.367,0,0,1-1.2-.312,3.1,3.1,0,0,0-2.562.132c-.737.485-1.03,1.439-1.532,2.192a15.939,15.939,0,0,0-1.425,1.918V326a2.3,2.3,0,0,0-.189.507,3.612,3.612,0,0,0,.112,1.672,1.162,1.162,0,0,0,.408.745,2.356,2.356,0,0,0,.882.175l-.033.143a5.769,5.769,0,0,0,4,6.709v.154a3.674,3.674,0,0,1-.027.433h0s-2.54-.523-3.223-.17-2.02.63-2.222.822-.707.052-1.162,1.236-.5,2.392-1.1,2.949-.882.932-.91,1.335.077.5-.151.63-.548.655-.455.858a.715.715,0,0,1-.274.754.838.838,0,0,0-.354.756s-.153.548-.507.682-.581.956-.581.956l-1.146,1.315-2.269-2.51a.959.959,0,0,0-1.351-.068l-1.115,1a2.209,2.209,0,0,0-1.115.663,2.97,2.97,0,0,0-.578.86l-.608.548a1.554,1.554,0,0,0-.159,1.713l1.455,1.609v.014a2.576,2.576,0,0,0-1.406.573c-2.17,1.918-2.192,3.68-1.869,4.486a33.164,33.164,0,0,0,3.08,3.905,12.3,12.3,0,0,0,3.911,3.184h0l-.016.019a1.9,1.9,0,0,0-.134.156l-.038.049-.036.049-.041.06a.478.478,0,0,0-.03.049l-.044.071a.432.432,0,0,0-.027.049c-.019.033-.036.066-.052.1q-.009.016-.016.033c-.022.044-.044.088-.063.137l-.022.049c-.014.033-.025.066-.038.1a.614.614,0,0,0-.022.066l-.033.1a.545.545,0,0,0-.022.071.6.6,0,0,1-.03.11c-.008.038-.014.044-.019.068s-.027.118-.038.181a.138.138,0,0,1-.014.071.654.654,0,0,0-.022.129.35.35,0,0,0,0,.093l-.016.123v.1a.513.513,0,0,1-.014.143c-.014.049,0,.058,0,.088v.244a13.956,13.956,0,0,0,.123,3.376,1.644,1.644,0,0,0,1.34,1.006,1.675,1.675,0,0,0,.43-.022,24.612,24.612,0,0,1,5.481-.548,9.419,9.419,0,0,0,2.724-.222l.227-.044.156.5.5-.137.425.244.274.156c.5,1.688,2.521,1.113,2.521,1.113l.48.274,4.875.126a9.781,9.781,0,0,0,1.726.822,1.325,1.325,0,0,0,.244.055,10.851,10.851,0,0,0,1.37.025c.373,0,.66-.025.66-.025s-.049-1.324-.121-2.806a39.764,39.764,0,0,0,4.516-.37c2.6-.455,3.689-2.823,4.089-4.089a11.948,11.948,0,0,1,.255,1.57,11.394,11.394,0,0,0,.406,1.37,4.57,4.57,0,0,0,.548,1.008c1.918-.655.756-1.644.354-2.066s.274-.781.274-.781.532-.353.48-.68-.077-.68,1.644-.655S280.617,364.943,280.617,364.943Zm-26.67-16.089a13.071,13.071,0,0,0,.477,2.1,2.74,2.74,0,0,1,.058.822c-1.017-.082-2.077-.126-2.077-.126a.258.258,0,0,1,.055.129l-.162-.036-.23-.055,1.874-2.853Zm-3.716,5.908,1.762.274.148.022a5.76,5.76,0,0,0-.09.822c0,.027.038.058.1.093a2.169,2.169,0,0,0-.033.419,4.887,4.887,0,0,0,1.795.688c-.014.052-.025.1-.038.145h0c-.836-.438-2.148-.644-2.3-.97s-4.623-1.888-4.623-1.888l-.444-.222,1.176.222.323-.033A17.461,17.461,0,0,0,250.231,354.762Z" transform="translate(-174.851 -257.396)" fill="url(#c)"/><path d="M291.825,458.738s-.7,4.231-4.253,4.856-15.42.5-15.42.5-6.785-.978-9.238-6.709-4.031-8.013-1.918-8.112,13.445,3.837,14.094,3.88S292.453,444.444,291.825,458.738Z" transform="translate(-191.808 -350.095)" fill="#65617d"/><path d="M291.825,458.738s-.7,4.231-4.253,4.856-15.42.5-15.42.5-6.785-.978-9.238-6.709-4.031-8.013-1.918-8.112,13.445,3.837,14.094,3.88S292.453,444.444,291.825,458.738Z" transform="translate(-191.808 -350.095)" opacity="0.05"/><path d="M259.664,484a1.62,1.62,0,0,0,1.326,1,1.815,1.815,0,0,0,.43-.025,24.7,24.7,0,0,1,5.432-.548,9.424,9.424,0,0,0,2.7-.219c.567-.107.984-.208.984-.208s-1-3.33-1.126-3.428-4.508-2.74-4.508-2.74l-3.469-.249h0a1.833,1.833,0,0,0-1.178.691,3.715,3.715,0,0,0-.7,2.362A13.811,13.811,0,0,0,259.664,484Z" transform="translate(-191.466 -370.645)" fill="#3f3d56"/><path d="M259.689,484.042a1.62,1.62,0,0,0,1.326,1,14.73,14.73,0,0,1-.943-1.37l.019-2.428a4.286,4.286,0,0,1,1.37-3.6h0s-1.828.123-1.88,3.053A14.753,14.753,0,0,0,259.689,484.042Z" transform="translate(-191.491 -370.688)" opacity="0.05"/><path d="M309.582,461.489l3.231-2.529,5.081-5.007-1.37-.063c-.206.132-.781.548-.8,1.047-.025.611-1.37.044-2.075.392s-4.13,4.741-4.73,4.711-1.077-.3-1.329.123l-.016.027Z" transform="translate(-226.336 -353.447)" opacity="0.1"/><path d="M262.11,478.262c.115.055.233.11.351.159a22.243,22.243,0,0,1,5.708,3.656,23.813,23.813,0,0,0,3.247,2.11c.567-.107.984-.208.984-.208s-1-3.33-1.126-3.428-4.508-2.74-4.508-2.74l-3.469-.249h0A1.833,1.833,0,0,0,262.11,478.262Z" transform="translate(-193.334 -370.63)" opacity="0.1"/><path d="M236.872,440.524a33.279,33.279,0,0,0,3.053,3.88,11.821,11.821,0,0,0,4.182,3.289,21.665,21.665,0,0,1,5.706,3.656,26.355,26.355,0,0,0,3.478,2.244l.31.181.682.4.362.206s.839-.671,1.674-1.348,1.644-1.34,1.644-1.37.351-.926.274-.976-.211-.373-.529-.776a3.53,3.53,0,0,0-1.274-1.052,3.631,3.631,0,0,1-1.644-1.724s-.11-.079-.274-.186a3.391,3.391,0,0,0-1.124-.5c-.548-.069-1.579-1.195-1.579-1.195a3.063,3.063,0,0,1-.976-1.025c-.274-.548-4.146-3.217-4.505-3.464l9.411,6.045,2.253,1.447,3.231-2.527,5.081-5.007-1.677-.077c-2.466-.107-6.851-.274-7.4-.148a4.3,4.3,0,0,1-1.37.09,4.853,4.853,0,0,1-2.077-.381c-.828-.436-2.129-.641-2.28-.965s-4.579-1.874-4.579-1.874-6.029-3.2-8.186-1.3S236.545,439.718,236.872,440.524Z" transform="translate(-174.903 -340.067)" fill="#65617d"/><path d="M308.24,367.239l.776,2.579,1,5.807,3.68.249,1.052-1.754,1.063-1.765s.663-2.346,1.14-4.615c.419-2.009.7-3.96.238-4.171-.408-.186-.674-.863-.85-1.592-.022-.088-.041-.181-.058-.274a14.435,14.435,0,0,1-.247-1.866s-7.709-.4-6.632,2.779a5.073,5.073,0,0,1,.29,1.691,2.216,2.216,0,0,1-.027.43A3.6,3.6,0,0,1,308.24,367.239Z" transform="translate(-226.822 -285.157)" fill="#ee8e9e"/><path d="M302.4,379.83l.274,4.385.625,3.73.7,1.729.628,9.449s6.029.7,7.5-.014a.625.625,0,0,0,.274-.206c1.773-2.677,1.192-10.433,1.192-10.433l.674-5.007-.449-2.6-1.1-.115-.839-.09s-.189.233-.463.595c-.743.978-2.107,2.908-2.014,3.711.123,1.1-.151,2.228-.578,2.4s-.776.477-.85.175a1.346,1.346,0,0,1-.077-.8,6.506,6.506,0,0,0-.326-1.729,7.275,7.275,0,0,1-.625-2.176,2.581,2.581,0,0,0-.274-1.578c-.2-.175-.477-.351-.252-1.151s-.987-2.36-.987-2.36Z" transform="translate(-222.583 -298.173)" fill="#e3e8f4"/><path d="M331.461,383.314l.252,7.484,1.444.8a.65.65,0,0,0,.274-.208c1.773-2.677,1.192-10.433,1.192-10.433l.677-5.007-.452-2.6-1.1-.115c.422-2.009.7-3.957.238-4.171-.408-.186-.674-.863-.847-1.589h0l-.781,5.295s.066.477.088.97a2.741,2.741,0,0,1-.063.932,3.11,3.11,0,0,0-.049,1.252,10.165,10.165,0,0,0-.787,3.691C331.4,381.511,331.461,383.314,331.461,383.314Z" transform="translate(-243.672 -290.717)" opacity="0.1"/><path d="M333.536,367s1.263.156,1.663.682a2.367,2.367,0,0,0,1.452.6s1.2.4,1.176.5.351.252,1.1.452a5.061,5.061,0,0,1,2,1.1c0,.17,1.976,2.127,1.976,2.327a5,5,0,0,1,.526,2.277c-.074,1.326-.151,3.014.151,3.289s0,1.351,0,1.351a.74.74,0,0,0-.025.8,6.868,6.868,0,0,1-.052,2.327l.027,1.954s-.274,1.225.049,1.277-.049.6-.049.6-.274,1,.074,1.452a7.42,7.42,0,0,1,.449,2.376l5.358,7.786s.077,1.428-1.625,1.4-1.68.326-1.628.649-.477.677-.477.677-.674.351-.274.776,1.551,1.4-.351,2.053a4.531,4.531,0,0,1-.548-1,11.362,11.362,0,0,1-.4-1.351s-.175-1.9-.526-2.154-.3-1.452-.3-1.452.5-.976-.2-1.37-10.863-6.029-10.863-6.029l-.247-7.487s-.175-5.533.877-7.385a3.111,3.111,0,0,1,.049-1.252,6.484,6.484,0,0,0-.025-1.9Z" transform="translate(-244.042 -290.369)" fill="#3f3d56"/><path d="M289.579,377.234s-2.516-.518-3.193-.167-2,.625-2.192.822-.7.052-1.151,1.228-.5,2.379-1.077,2.93-.874.926-.9,1.326.074.5-.151.625-.548.652-.452.852,5.207,4.607,5.207,4.607a12.077,12.077,0,0,0,.477,2.1c.225.425-.249,6.284-.751,6.684s3.368.367,3.368.367.175-3.837.326-4.045a39.711,39.711,0,0,0-.1-4.305,24.464,24.464,0,0,1,.3-4.431,19.919,19.919,0,0,0,.274-4.007,8.238,8.238,0,0,1,.639-2.277C290.554,379.114,289.579,377.234,289.579,377.234Z" transform="translate(-206.646 -297.588)" opacity="0.1"/><path d="M289.306,376.961s-2.516-.518-3.193-.17-2,.628-2.192.822-.7.049-1.151,1.228-.5,2.376-1.077,2.927-.877.926-.9,1.326.077.5-.151.628-.548.649-.449.85,5.207,4.607,5.207,4.607a11.818,11.818,0,0,0,.477,2.1c.227.425-.252,6.284-.754,6.684s3.382.364,3.382.364.175-3.837.323-4.042a40.519,40.519,0,0,0-.1-4.308,24.436,24.436,0,0,1,.3-4.429,20.175,20.175,0,0,0,.288-4.007,8.238,8.238,0,0,1,.638-2.277C290.306,378.836,289.306,376.961,289.306,376.961Z" transform="translate(-206.447 -297.389)" fill="#3f3d56"/><path d="M312.266,362.6a5.073,5.073,0,0,1,.29,1.691,5.755,5.755,0,0,0,6.577-2.6,14.43,14.43,0,0,1-.247-1.866S311.189,359.414,312.266,362.6Z" transform="translate(-229.67 -285.142)" opacity="0.1"/><path d="M298.65,340.374a5.736,5.736,0,1,0,.126-1.192A5.675,5.675,0,0,0,298.65,340.374Z" transform="translate(-219.86 -266.878)" fill="#ee8e9e"/><path d="M271.913,404l-1.37.425a.71.71,0,0,1-.274.751.822.822,0,0,0-.348.751s-.151.548-.5.677-.576.951-.576.951l-1.151,1.326s-.428.351-.351.526-.452.225-.452.225l.274,4.456,2.379.452,1.477-.151,1.2-.449,1.052-.628.474-1.225,2.1-3.206Z" transform="translate(-196.804 -317.229)" fill="#3f3d56"/><path d="M251.879,418.564s-3.053-4.4-5.333-2.028.926,6.234,1.677,6.108,4.333-.326,4.333-.326Z" transform="translate(-181.45 -325.819)" fill="#ee8e9e"/><rect width="15.985" height="12.411" rx="1.54" transform="translate(63.759 83.766) rotate(27.04)" fill="#3f3d56"/><rect width="13.436" height="10.126" transform="translate(64.399 85.345) rotate(27.04)" fill="#ce9751"/><circle cx="0.219" cy="0.219" r="0.219" transform="translate(61.418 89.396)" fill="#e6e8ec"/><circle cx="0.364" cy="0.364" r="0.364" transform="translate(74.227 95.888)" fill="#e6e8ec"/><path d="M260.93,425.068c-.027,3.3,6.807,4.007,6.807,4.007l1.746.274.784.123.326-3.228s-.359-.055-.806-.159c-.663-.153-1.521-.419-1.7-.795C267.8,424.668,260.949,421.763,260.93,425.068Z" transform="translate(-192.477 -331.397)" fill="#ee8e9e"/><path d="M299.11,339.194a.679.679,0,0,1,.419.186c.192.206.2.57.455.7a.526.526,0,0,0,.3.033c.666-.093,1.05-.844,1.691-1.052a1.7,1.7,0,0,1,1.118.1.874.874,0,0,1,.373.238c.214.274.063.685.162,1.019.137.466.693.649,1.173.71a2.055,2.055,0,0,1,1.343.458,1.217,1.217,0,0,1,.238.97.756.756,0,0,0,0,.359c.132.375.781.318.951.022.126-.216.088-.395.381-.455a1.241,1.241,0,0,1,.611.107,4.533,4.533,0,0,0,1.587.244,5.733,5.733,0,1,0-10.8-3.631Z" transform="translate(-220.194 -266.89)" opacity="0.1"/><path d="M302.666,334.654a.759.759,0,0,1,0-.359,1.209,1.209,0,0,0-.238-.967,2.051,2.051,0,0,0-1.343-.46c-.482-.063-1.036-.244-1.173-.71-.1-.334.052-.743-.162-1.017a.822.822,0,0,0-.373-.238,1.7,1.7,0,0,0-1.118-.1c-.641.208-1.025.959-1.691,1.052a.5.5,0,0,1-.3-.033c-.252-.126-.274-.491-.455-.7-.3-.321-.882-.112-1.252-.351a1.154,1.154,0,0,1-.406-.743,3.6,3.6,0,0,1-.11-1.661c.216-.929,1.05-1.568,1.578-2.365.5-.74.776-1.677,1.518-2.168a3.038,3.038,0,0,1,2.54-.132,7.173,7.173,0,0,0,1.189.312,13.382,13.382,0,0,0,2.036-.123,4.357,4.357,0,0,1,2.691.822,1.472,1.472,0,0,1,.438.444,2.306,2.306,0,0,1,.2.8,4.05,4.05,0,0,0,.529,1.463c.208.353.474.671.663,1.036a1.606,1.606,0,0,1,.181,1.187c-.066.206-.192.392-.241.6a2.271,2.271,0,0,0,.43,1.406,2.637,2.637,0,0,1,.293,1.335,1.672,1.672,0,0,1-.6,1.2,2.167,2.167,0,0,1-1.269.386,4.562,4.562,0,0,1-1.617-.244,1.274,1.274,0,0,0-.611-.107c-.293.06-.255.238-.381.455C303.447,334.972,302.8,335.03,302.666,334.654Z" transform="translate(-216.482 -258.788)" fill="#3f3d56"/><path d="M308.393,462l3.231-2.527,5.081-5.007-1.677-.077a1.1,1.1,0,0,0-.353.685c-.025.611-1.37.041-2.074.392s-4.13,4.741-4.73,4.711-1.077-.3-1.329.121l-.016.027a.707.707,0,0,1-.384.227Z" transform="translate(-225.298 -353.81)" opacity="0.1"/><path d="M290.61,457.274l1.622,5.182.255.822.773-.211,1.7-.469,7.586-2.083a6.6,6.6,0,0,0,2.74-.729A8.268,8.268,0,0,1,310,458.759c1,.093,2.118-.34,3.045-2.05,0,0,2.1-6.207-3.2-7.986s-5.56.945-5.56.945l-.074.044c-.206.132-.781.548-.8,1.047-.025.611-1.37.044-2.075.392s-4.13,4.741-4.73,4.711-1.077-.3-1.329.123l-.016.027c-.186.255-.743.315-1.113.323a3.291,3.291,0,0,1-.345,0l-.049.014-.384.115Z" transform="translate(-214.024 -349.259)" fill="#65617d"/><path d="M292.14,436.164l.784.123.326-3.228s-.359-.055-.806-.159A16.523,16.523,0,0,1,292.14,436.164Z" transform="translate(-215.135 -338.209)" opacity="0.1"/><path d="M312.916,389.545s2.327-.677,1.751,5.933a18.482,18.482,0,0,1-4.881,10.789s-4.957,2.176-7.185,1.825-3.853-.425-3.853-.425a5.665,5.665,0,0,0-2.255-.6c-1.25-.049-3.878-.822-3.93-1.077s.652-3.93.351-4.2a23.2,23.2,0,0,1,3.856.395c.351.252.852.074,1.228,0a4.259,4.259,0,0,1,3.8-.195,2.31,2.31,0,0,0,1.077-.126,1.077,1.077,0,0,1,.784-.049,2.152,2.152,0,0,0,.548-.274c.074-.1.677,0,.677,0a.274.274,0,0,0,.375-.175,1.644,1.644,0,0,1,.351-.548s.674-3.8,1.951-5.232a.822.822,0,0,0,.274-.726C307.734,394.451,309.912,388.742,312.916,389.545Z" transform="translate(-215.439 -306.679)" opacity="0.1"/><path d="M312.694,387.69s2.329-.674,1.754,5.933a18.468,18.468,0,0,1-4.881,10.789s-4.957,2.179-7.185,1.828-3.856-.433-3.856-.433a5.643,5.643,0,0,0-2.253-.6c-1.252-.052-3.88-.822-3.93-1.077s.649-3.93.351-4.207a23.229,23.229,0,0,1,3.856.4c.351.252.85.071,1.225,0a4.279,4.279,0,0,1,3.807-.2,2.284,2.284,0,0,0,1.074-.123,1.1,1.1,0,0,1,.784-.052,2.276,2.276,0,0,0,.548-.274c.074-.1.674,0,.674,0a.274.274,0,0,0,.375-.175,1.645,1.645,0,0,1,.351-.548s.677-3.8,1.954-5.232a.822.822,0,0,0,.274-.726C307.514,392.6,309.69,386.9,312.694,387.69Z" transform="translate(-215.28 -305.334)" fill="#3f3d56"/><path d="M300.64,478.215l3.3,4,.022-.022c.025-.077.351-.926.274-.978a4.654,4.654,0,0,0-1.8-1.828,3.415,3.415,0,0,1-1.417-1.288Z" transform="translate(-221.305 -371.022)" opacity="0.1"/><path d="M300.588,492.1l.362.206s.839-.671,1.674-1.348,1.644-1.34,1.644-1.37.351-.926.274-.976-.211-.373-.529-.776c-2.242-.628-.822.929-.625,1a2.282,2.282,0,0,0-2.877,2.346A3.676,3.676,0,0,0,300.588,492.1Z" transform="translate(-221.209 -377.982)" opacity="0.1"/><path d="M303.98,493.321l.477.274,4.831.123a9.685,9.685,0,0,0,1.71.822,1.611,1.611,0,0,0,.241.052,10.7,10.7,0,0,0,1.348.025c.37,0,.655-.025.655-.025s-.227-6.092-.4-6.733c-.082-.307-.488-.241-.888-.088a6.051,6.051,0,0,0-.866.438,15.6,15.6,0,0,0-2.376.375c-.326.175-1.252-.1-1.828,0s-1.6-.677-1.6-.677c-2.8-.926-1.225.8-1.025.877a2.282,2.282,0,0,0-2.88,2.346A1.938,1.938,0,0,0,303.98,493.321Z" transform="translate(-221.836 -377.945)" fill="#3f3d56"/><path d="M336.373,491A8.134,8.134,0,0,0,338,494.654c.37,0,.655-.025.655-.025s-.227-6.092-.4-6.733c-.082-.307-.488-.241-.888-.088A7.026,7.026,0,0,0,336.373,491Z" transform="translate(-247.244 -377.977)" fill="#565387"/><path d="M336.373,491A8.134,8.134,0,0,0,338,494.654c.37,0,.655-.025.655-.025s-.227-6.092-.4-6.733c-.082-.307-.488-.241-.888-.088A7.026,7.026,0,0,0,336.373,491Z" transform="translate(-247.244 -377.977)" opacity="0.1"/><path d="M333.144,491.168c.334,1.217.329,2.582.861,3.409a1.6,1.6,0,0,0,.241.052,10.688,10.688,0,0,0,1.348.025c.37,0,.655-.025.655-.025s-.227-6.092-.4-6.733c-.082-.307-.488-.241-.888-.088a6.053,6.053,0,0,0-.866.438A3.367,3.367,0,0,0,333.144,491.168Z" transform="translate(-244.843 -377.977)" opacity="0.05"/><path d="M272.54,455.34a9.983,9.983,0,0,1,4.434,3.546Z" transform="translate(-200.906 -354.5)" opacity="0.1"/><g transform="translate(77.506 69.081)" opacity="0.1"><path d="M343.439,345.72a.082.082,0,0,1-.014.055,1.5,1.5,0,0,1-.085.208A1.922,1.922,0,0,1,343.439,345.72Z" transform="translate(-329.809 -344.002)"/><path d="M294.019,339.954a2.144,2.144,0,0,1,.186-.5.62.62,0,0,1-.038.129,3.639,3.639,0,0,0,.112,1.661,1.162,1.162,0,0,0,.4.743c.373.238.951.03,1.255.351.192.206.2.57.455.7a.5.5,0,0,0,.3.033c.666-.093,1.05-.844,1.691-1.052a1.683,1.683,0,0,1,1.118.1.822.822,0,0,1,.373.238c.214.274.063.682.162,1.017.137.466.693.649,1.173.71a2.042,2.042,0,0,1,1.343.46,1.209,1.209,0,0,1,.238.967.759.759,0,0,0,0,.359c.132.375.781.318.951.022.126-.217.088-.395.381-.455a1.274,1.274,0,0,1,.611.107,4.562,4.562,0,0,0,1.617.244,2.168,2.168,0,0,0,1.269-.386,1.42,1.42,0,0,0,.389-.474,1.579,1.579,0,0,1-.548.85,2.168,2.168,0,0,1-1.269.386,4.563,4.563,0,0,1-1.617-.244,1.274,1.274,0,0,0-.611-.107c-.293.06-.255.238-.378.455-.173.3-.822.354-.954-.022a.794.794,0,0,1,0-.359,1.209,1.209,0,0,0-.238-.967,2.051,2.051,0,0,0-1.343-.46c-.482-.063-1.036-.244-1.173-.71-.1-.334.052-.743-.162-1.017a.822.822,0,0,0-.37-.238,1.708,1.708,0,0,0-1.121-.1c-.639.208-1.025.959-1.691,1.052a.5.5,0,0,1-.3-.033c-.252-.126-.274-.491-.455-.7-.3-.321-.88-.112-1.252-.351a1.154,1.154,0,0,1-.406-.743A3.6,3.6,0,0,1,294.019,339.954Z" transform="translate(-293.966 -339.45)"/></g><path d="M339.811,411.242c-.46.619-.984,1.192-1.389,1.844a3.511,3.511,0,0,0-.608,2.192,5.7,5.7,0,0,0,.877-1.568,21.934,21.934,0,0,1,1.685-2.529c.107-.162.8-1.1.449-1.135C340.535,410.006,339.968,411.031,339.811,411.242Z" transform="translate(-248.287 -321.618)" opacity="0.1"/><path d="M345.786,592.339c.332,1.063.666,2.129,1.08,3.162a26.9,26.9,0,0,0,2.8,5.1,36.993,36.993,0,0,0,2.313,3.031,10.024,10.024,0,0,1,2.543,3.987,20.344,20.344,0,0,1,.227,2.74,3.354,3.354,0,0,0,1.129,2.434,4.115,4.115,0,0,0,1.855.611c.466.074,1.047.1,1.288-.3a1.17,1.17,0,0,0,.129-.532l.112-1.34c.022-.29.126-.66.417-.674s.436.373.682.548a.743.743,0,0,0,1-.348,1.691,1.691,0,0,0,.027-1.178,5.582,5.582,0,0,0-2.869-3.563,8.218,8.218,0,0,1-1.4-.726,4.776,4.776,0,0,1-1.1-1.387,86.2,86.2,0,0,1-6.895-12.954,9.593,9.593,0,0,1-.71-2.554,16.772,16.772,0,0,1,.11-2.7,15.347,15.347,0,0,0-.444-4.8,3.836,3.836,0,0,0-.458-1.167,2.6,2.6,0,0,0-3.563-.515,3.672,3.672,0,0,0-1.42,2.6,7.485,7.485,0,0,0,.71,2.7Q344.567,588.426,345.786,592.339Z" transform="translate(-251.796 -444.079)" fill="#a1616a"/><path d="M345.786,592.339c.332,1.063.666,2.129,1.08,3.162a26.9,26.9,0,0,0,2.8,5.1,36.993,36.993,0,0,0,2.313,3.031,10.024,10.024,0,0,1,2.543,3.987,20.344,20.344,0,0,1,.227,2.74,3.354,3.354,0,0,0,1.129,2.434,4.115,4.115,0,0,0,1.855.611c.466.074,1.047.1,1.288-.3a1.17,1.17,0,0,0,.129-.532l.112-1.34c.022-.29.126-.66.417-.674s.436.373.682.548a.743.743,0,0,0,1-.348,1.691,1.691,0,0,0,.027-1.178,5.582,5.582,0,0,0-2.869-3.563,8.218,8.218,0,0,1-1.4-.726,4.776,4.776,0,0,1-1.1-1.387,86.2,86.2,0,0,1-6.895-12.954,9.593,9.593,0,0,1-.71-2.554,16.772,16.772,0,0,1,.11-2.7,15.347,15.347,0,0,0-.444-4.8,3.836,3.836,0,0,0-.458-1.167,2.6,2.6,0,0,0-3.563-.515,3.672,3.672,0,0,0-1.42,2.6,7.485,7.485,0,0,0,.71,2.7Q344.567,588.426,345.786,592.339Z" transform="translate(-251.796 -444.079)" opacity="0.05"/><path d="M294.386,770.963a3.653,3.653,0,0,0,1.546.186c.038-.428.614-.523,1.041-.5a1.189,1.189,0,0,1,.595.137c.107.068.189.167.293.238a1.269,1.269,0,0,0,.606.156l2.225.186a6.7,6.7,0,0,0,2.954-.192,1.019,1.019,0,0,0,.474-.318c.252-.362,0-.88-.348-1.143s-.8-.381-1.148-.649c-.773-.589-.88-1.691-1.288-2.573a7.592,7.592,0,0,0-1.066-1.543,5.924,5.924,0,0,0-1.05-1.077,5.543,5.543,0,0,0-2.968-.724,1.988,1.988,0,0,0-1.968.548c-.658.822-.395,2.466-.354,3.425A24.8,24.8,0,0,0,294.386,770.963Z" transform="translate(-216.372 -577.928)" fill="#514e7f"/><path d="M294.386,770.963a3.653,3.653,0,0,0,1.546.186c.038-.428.614-.523,1.041-.5a1.189,1.189,0,0,1,.595.137c.107.068.189.167.293.238a1.269,1.269,0,0,0,.606.156l2.225.186a6.7,6.7,0,0,0,2.954-.192,1.019,1.019,0,0,0,.474-.318c.252-.362,0-.88-.348-1.143s-.8-.381-1.148-.649c-.773-.589-.88-1.691-1.288-2.573a7.592,7.592,0,0,0-1.066-1.543,5.924,5.924,0,0,0-1.05-1.077,5.543,5.543,0,0,0-2.968-.724,1.988,1.988,0,0,0-1.968.548c-.658.822-.395,2.466-.354,3.425A24.8,24.8,0,0,0,294.386,770.963Z" transform="translate(-216.372 -577.928)" opacity="0.05"/><path d="M285.3,629.061a1.547,1.547,0,0,0-.85,1.77,6.512,6.512,0,0,0,.9,1.937c.992,1.773,1.42,3.8,2.253,5.651.622,1.37,1.463,2.658,2.077,4.045a6.91,6.91,0,0,1,.622,4.423c-.181.715-.532,1.37-.765,2.075a11.509,11.509,0,0,0-.449,2.343,44.5,44.5,0,0,0-.162,8.128,2.428,2.428,0,0,0,.2.959c.14.274.381.548.274.822-.047.112-.148.195-.2.3-.143.307.142.633.4.852a.71.71,0,0,1-.436.337,1.03,1.03,0,0,1,.438,1.148c-.23.036-.244.389-.1.576s.375.3.48.512a.715.715,0,0,1-.395.9,1.878,1.878,0,0,1-1.074.082,11.785,11.785,0,0,1-1.795-.395,1.3,1.3,0,0,1-1.047-1.343,19.959,19.959,0,0,1-.123-3.363c.1-5.437,0-10.88-.236-16.314a18.594,18.594,0,0,0-1.6-6.333,33.241,33.241,0,0,0-1.559-3.014c-1.222-2.236-2.3-4.714-2.022-7.248.03-.274.129-.6.4-.644a.581.581,0,0,1,.31.052,13.932,13.932,0,0,1,1.631.9A6.154,6.154,0,0,0,285.3,629.061Z" transform="translate(-206.392 -479.312)" fill="#464353"/><path d="M285.3,629.061a1.547,1.547,0,0,0-.85,1.77,6.512,6.512,0,0,0,.9,1.937c.992,1.773,1.42,3.8,2.253,5.651.622,1.37,1.463,2.658,2.077,4.045a6.91,6.91,0,0,1,.622,4.423c-.181.715-.532,1.37-.765,2.075a11.509,11.509,0,0,0-.449,2.343,44.5,44.5,0,0,0-.162,8.128,2.428,2.428,0,0,0,.2.959c.14.274.381.548.274.822-.047.112-.148.195-.2.3-.143.307.142.633.4.852a.71.71,0,0,1-.436.337,1.03,1.03,0,0,1,.438,1.148c-.23.036-.244.389-.1.576s.375.3.48.512a.715.715,0,0,1-.395.9,1.878,1.878,0,0,1-1.074.082,11.785,11.785,0,0,1-1.795-.395,1.3,1.3,0,0,1-1.047-1.343,19.959,19.959,0,0,1-.123-3.363c.1-5.437,0-10.88-.236-16.314a18.594,18.594,0,0,0-1.6-6.333,33.241,33.241,0,0,0-1.559-3.014c-1.222-2.236-2.3-4.714-2.022-7.248.03-.274.129-.6.4-.644a.581.581,0,0,1,.31.052,13.932,13.932,0,0,1,1.631.9A6.154,6.154,0,0,0,285.3,629.061Z" transform="translate(-206.392 -479.312)" opacity="0.05"/><path d="M250.73,608.7a1.776,1.776,0,0,0-2.469.28,13.155,13.155,0,0,0-1.283,1.124,6.835,6.835,0,0,0-1.524,6.763,13.322,13.322,0,0,0,1.869,3.319l1.48,2.127c2.258,3.242,4.516,6.484,6.881,9.649a.367.367,0,0,0,.258.348c.085.022.192.019.244.09a.258.258,0,0,1,.03.145,2.1,2.1,0,0,1-.132.685.326.326,0,0,0-.027.236c.077.178.4.077.5.244.069.11-.016.252-.107.345s-.2.2-.186.326.241.274.233.433c0,.093-.082.164-.14.238a.611.611,0,0,0,.074.778c.156,1.546-.685,3.014-.852,4.555-.274,2.434.836,4.809.97,7.251a1.877,1.877,0,0,0,.153.8c.227.422.822.677.792,1.156a4.634,4.634,0,0,1-.167.581,4.416,4.416,0,0,0,.09.822c.005.274-.238.611-.5.5q.29.97.518,1.957l5.179.428a4.6,4.6,0,0,0-.047-1.4c-.107-.5-.332-.967-.449-1.463a1.732,1.732,0,0,1,.2-1.466.573.573,0,0,1-.57-.469,2.277,2.277,0,0,1,.014-.806c.137-1.351-.43-2.683-.414-4.039a19.724,19.724,0,0,1,.581-3.146c.406-2.247-.016-4.683.984-6.736.606-1.236,1.444-2.606.765-3.8-.334-.592-.926-1-1.313-1.557a6.332,6.332,0,0,1-.7-1.7,57.288,57.288,0,0,0-3.22-7.1,7.4,7.4,0,0,1-.693-1.866,9.787,9.787,0,0,1-.088-1.724,25.411,25.411,0,0,0-.189-3.094,2.944,2.944,0,0,0-.375-1.28,2.863,2.863,0,0,0-.822-.737A54.27,54.27,0,0,0,250.73,608.7Z" transform="translate(-181.006 -465.564)" fill="#464353"/><path d="M286.792,777.887a3.714,3.714,0,0,0,1.548.184c.038-.428.611-.523,1.039-.5a1.189,1.189,0,0,1,.595.137c.107.069.189.17.3.238a1.24,1.24,0,0,0,.606.156l2.222.186a6.669,6.669,0,0,0,2.957-.192.992.992,0,0,0,.471-.318c.252-.362,0-.877-.348-1.14s-.8-.384-1.146-.652c-.776-.589-.88-1.688-1.291-2.571a7.42,7.42,0,0,0-1.063-1.546,5.921,5.921,0,0,0-1.052-1.074,5.512,5.512,0,0,0-2.965-.726,1.991,1.991,0,0,0-1.968.548c-.658.822-.395,2.466-.356,3.428A24.826,24.826,0,0,0,286.792,777.887Z" transform="translate(-210.861 -582.953)" fill="#514e7f"/><circle cx="5.13" cy="5.13" r="5.13" transform="translate(93.758 123.909)" fill="#a1616a"/><path d="M328.039,561.223a4.84,4.84,0,0,1-2.754.778,17.3,17.3,0,0,0-5.928,1.716,2.137,2.137,0,0,0-.685.471,1.934,1.934,0,0,0-.348.734,4.8,4.8,0,0,0-.195,1.784,5.084,5.084,0,0,0,.5,1.677,9.043,9.043,0,0,0,3.179,3.626,2.329,2.329,0,0,0,.806.386,4.519,4.519,0,0,0,1.992-.425,3.255,3.255,0,0,1,1.839.058c.548.186,1.148.526,1.691.3a1.735,1.735,0,0,0,.765-.871,29.657,29.657,0,0,0,1.4-3.053,11.744,11.744,0,0,1,.507-1.195c.595-1.132,1.622-2.006,2.135-3.182a.7.7,0,0,0,.049-.6.822.822,0,0,0-.378-.288,8.992,8.992,0,0,1-2.05-1.609c-.337-.323-.956-1.2-1.441-1.274C328.574,560.166,328.409,560.905,328.039,561.223Z" transform="translate(-233.991 -430.66)" fill="#a1616a"/><path d="M288.666,580.986a3.145,3.145,0,0,1-1.94.022,22.142,22.142,0,0,1-4.878-1.417,2.642,2.642,0,0,1-1.2-.921,3.015,3.015,0,0,1-.334-1.148l-.274-1.918a11.18,11.18,0,0,1,.088-1.957.567.567,0,0,0-.112-.425.463.463,0,0,0-.337-.107c-.77.014-1.236.822-1.776,1.37a3.288,3.288,0,0,1-1.1.734c-.493.2-1.1.345-1.3.839-.082.206-.071.438-.159.644-.345.822-1.817.548-2.192,1.37-.107.23-.1.518-.274.7s-.5.178-.776.222c-1.072.175-1.589,1.411-2.5,2a20.248,20.248,0,0,1-2.592.866,9.847,9.847,0,0,1-1.357.688,6.406,6.406,0,0,1-1.562.079.408.408,0,0,0-.31.1.414.414,0,0,0-.052.34,9.444,9.444,0,0,0,5.834,7.311,1.95,1.95,0,0,1,.5.241c.466.348.548,1.1,1.077,1.343a1.1,1.1,0,0,0,1.121-.241,10.07,10.07,0,0,0,.822-.893,3.22,3.22,0,0,1,1.806-.951,3.969,3.969,0,0,0,1.861-.419,5.766,5.766,0,0,0,.586-.625,3.684,3.684,0,0,1,1.329-.795,13.587,13.587,0,0,1,4.228-.929,14.751,14.751,0,0,0,4.017-.389,2.422,2.422,0,0,0,.9-.507,2.694,2.694,0,0,0,.6-1.039A7.947,7.947,0,0,0,288.666,580.986Z" transform="translate(-194.498 -439.998)" fill="#ce9751"/><path d="M323.082,573.952c.378-.036.759,0,1.14,0,.447,0,.888-.11,1.335-.112a3.319,3.319,0,0,1,3.13,2.381.617.617,0,0,1,.019.337.238.238,0,0,1-.258.175,5.682,5.682,0,0,0-.578-1.154,3.242,3.242,0,0,0-1.721-1.2,4.455,4.455,0,0,0-2.116-.077c-.293.055-.578.132-.863.211l-1.37.378c-.252.069-.507.137-.751.227-.189.071-.512.332-.7.343-.252,0-.049-.219.063-.367a1.822,1.822,0,0,1,.9-.652A7.763,7.763,0,0,1,323.082,573.952Z" transform="translate(-235.526 -440.525)" fill="#ce9751"/><path d="M334.9,594.43c.332,1.063.663,2.129,1.08,3.162a26.746,26.746,0,0,0,2.8,5.1,37.009,37.009,0,0,0,2.313,3.031,10.248,10.248,0,0,1,2.543,3.985,20.424,20.424,0,0,1,.227,2.74,3.366,3.366,0,0,0,1.126,2.433,4.2,4.2,0,0,0,1.858.611c.463.074,1.044.1,1.288-.3a1.216,1.216,0,0,0,.129-.532l.11-1.34c.025-.291.129-.66.417-.674s.438.373.685.548a.743.743,0,0,0,1-.348,1.7,1.7,0,0,0,.027-1.178,5.6,5.6,0,0,0-2.869-3.562,8.359,8.359,0,0,1-1.4-.726,4.744,4.744,0,0,1-1.1-1.389,85.445,85.445,0,0,1-6.895-12.954,9.663,9.663,0,0,1-.712-2.551,16.77,16.77,0,0,1,.112-2.7,15.348,15.348,0,0,0-.444-4.8,3.781,3.781,0,0,0-.46-1.167,2.6,2.6,0,0,0-3.563-.515,3.675,3.675,0,0,0-1.422,2.6,7.541,7.541,0,0,0,.71,2.7Q333.682,590.517,334.9,594.43Z" transform="translate(-243.89 -445.594)" fill="#a1616a"/><path d="M351.193,533.385c.041-.428-.343-.822-.778-1.1a10.3,10.3,0,0,1-1.318-.806c-.389-.337-.6-.776-.992-1.113a4.409,4.409,0,0,0-1.48-.737,11.268,11.268,0,0,0-3.541-.633,6.144,6.144,0,0,0-3.384.9,2,2,0,0,0-.576.548,2.351,2.351,0,0,0-.274.849,16.767,16.767,0,0,1-.885,2.688,6.257,6.257,0,0,1-1.683,2.719c-.959.8-2.425,1.258-3.058,2.223a.712.712,0,0,0-.14.622c.09.244.381.411.65.565a8.8,8.8,0,0,1,3.59,3.437,3.988,3.988,0,0,1-.312,4.289c-.362.471-.861,1.03-.507,1.5.548.721,2.381.307,2.809,1.069a1.555,1.555,0,0,1,.055.786c0,.8.77,1.51,1.7,1.88a9.6,9.6,0,0,0,3.069.5,2.68,2.68,0,0,0,.077-1.987.8.8,0,0,1-.079-.452,1.1,1.1,0,0,1,.354-.433c1.124-1.063.885-2.625.211-3.889s-1.727-2.417-2.118-3.746a1.932,1.932,0,0,1,.329-1.951,6.6,6.6,0,0,1,.967-.7,3.656,3.656,0,0,0,1.354-1.7c.315-.874.274-1.918,1.189-2.508.88-.548,2.116-.389,3.088-.765A3.305,3.305,0,0,0,351.193,533.385Z" transform="translate(-244.843 -407.973)" fill="#464353"/><path d="M563.77,655.352c-4.179-1.729-5.407-2.979-5.407-5.481,0-1.918.844-4.133,4.544-4.133a10.432,10.432,0,0,1,5.777,1.644l1.2-3.182a12.758,12.758,0,0,0-6.245-1.683V637.86H561.21v4.851c-4.42.721-6.98,3.746-6.98,7.734,0,4.179,2.466,6.391,7.377,8.312,3.557,1.45,5.418,3.083,5.418,5.725,0,2.74-2.3,4.708-5.716,4.708a14.827,14.827,0,0,1-7.465-2.066l-1.154,3.217a13.991,13.991,0,0,0,7.35,2.116v4.851h4.135v-5c4.933-.822,7.588-4.385,7.588-8.167C571.763,659.868,568.719,657.369,563.77,655.352Z" transform="translate(-404.282 -487.001)" fill="url(#d)"/><path d="M560.08,673.328v-4.851a13.991,13.991,0,0,1-7.35-2.116l1.154-3.217a14.828,14.828,0,0,0,7.465,2.066c3.412,0,5.706-1.968,5.706-4.708,0-2.642-1.872-4.275-5.429-5.716-4.9-1.918-7.377-4.133-7.377-8.312,0-3.987,2.56-7.013,6.98-7.734V633.89h2.431v4.659a12.787,12.787,0,0,1,6.245,1.683l-1.2,3.168a10.433,10.433,0,0,0-5.777-1.644c-3.7,0-4.544,2.212-4.544,4.133,0,2.5,1.228,3.746,5.407,5.481,4.949,2.017,7.994,4.516,7.994,8.791,0,3.8-2.642,7.35-7.588,8.167v5Z" transform="translate(-404.311 -484.119)" fill="#ce9751"/></g><g transform="translate(-210.533 86.527)" opacity="0"><path d="M964.622,681.973c-.021-.094-2.083-9.5,2.128-17.3s13.2-11.252,13.289-11.286l.411-.154.1.428c.021.094,2.083,9.5-2.128,17.3s-13.2,11.252-13.289,11.286l-.411.154Zm15.264-27.7c-1.8.774-8.906,4.164-12.462,10.759s-2.484,14.4-2.141,16.324c1.8-.773,8.9-4.157,12.462-10.759s2.483-14.394,2.142-16.324Z" transform="translate(-706.884 -470.239)" fill="#3f3d56"/><path d="M976.5,692.82c-7.567,4.552-10.481,13.595-10.481,13.595s9.354,1.661,16.921-2.891,10.481-13.595,10.481-13.595S984.061,688.267,976.5,692.82Z" transform="translate(-708.179 -494.837)" fill="#d0cde1"/><path d="M313.714,259.587c-.9,0-1.809-.014-2.7-.042l.02-.648c1.281.04,2.589.051,3.876.033l.009.649Q314.316,259.587,313.714,259.587Zm5.106-.15-.038-.647c1.283-.076,2.583-.182,3.862-.316l.068.645c-1.29.135-2.6.243-3.892.319Zm-11.706-.1c-1.294-.1-2.6-.229-3.886-.387l.079-.644c1.275.156,2.572.285,3.856.384Zm19.472-.713-.1-.641c1.275-.194,2.559-.418,3.817-.668l.126.636c-1.268.252-2.562.478-3.846.673Zm-27.222-.237c-1.278-.217-2.568-.466-3.834-.74l.138-.634c1.257.273,2.537.52,3.805.735Zm34.88-1.285-.156-.63c1.251-.309,2.51-.651,3.74-1.016l.184.622c-1.24.368-2.508.712-3.769,1.024Zm-42.51-.372c-1.254-.333-2.515-.7-3.75-1.091l.2-.618c1.225.387,2.477.751,3.721,1.082Zm50-1.849-.213-.613c1.214-.422,2.436-.879,3.63-1.357l.241.6c-1.2.482-2.434.942-3.658,1.367Zm-57.451-.508c-1.218-.448-2.443-.93-3.641-1.435l.252-.6c1.189.5,2.4.98,3.613,1.425Zm64.693-2.39-.269-.59c1.166-.53,2.338-1.1,3.484-1.681l.3.578c-1.155.59-2.336,1.16-3.511,1.694Zm6.94-3.548-.321-.563c1.118-.638,2.235-1.309,3.318-1.994l.346.548c-1.091.69-2.216,1.367-3.343,2.009Zm6.591-4.17-.371-.531c1.053-.736,2.1-1.506,3.123-2.29l.4.514c-1.027.79-2.086,1.566-3.148,2.307Zm-98.86-.913c-1.047-.76-2.093-1.557-3.109-2.368l.4-.507c1.008.8,2.046,1.6,3.085,2.35Zm105.047-3.842-.418-.5c.981-.828,1.958-1.691,2.9-2.565l.44.476c-.952.881-1.937,1.75-2.926,2.585Zm-111.152-1.033c-.975-.854-1.944-1.742-2.879-2.64l.449-.468c.928.891,1.89,1.773,2.857,2.62Zm116.884-4.268-.462-.455c.9-.917,1.8-1.866,2.66-2.82l.482.434c-.866.962-1.768,1.918-2.68,2.841ZM251.9,233.068c-.895-.941-1.778-1.913-2.626-2.89l.49-.425c.841.969,1.718,1.934,2.606,2.868ZM379.649,228.4l-.5-.412c.817-.995,1.622-2.021,2.393-3.052l.519.388C381.283,226.368,380.472,227.4,379.649,228.4Zm-132.863-1.231c-.8-1.015-1.594-2.063-2.351-3.115l.526-.379c.751,1.044,1.536,2.084,2.333,3.091Zm137.542-5.026-.537-.364c.723-1.065,1.432-2.161,2.106-3.259l.553.34C385.771,219.97,385.057,221.074,384.328,222.147Zm-142.1-1.307c-.707-1.083-1.4-2.2-2.056-3.314l.559-.329c.653,1.108,1.339,2.214,2.041,3.289Zm146.191-5.355-.568-.314c.623-1.127,1.228-2.284,1.8-3.44l.582.288c-.575,1.164-1.185,2.33-1.813,3.466Zm3.464-7.012-.594-.26c.517-1.18,1.013-2.389,1.475-3.593l.606.232c-.466,1.213-.966,2.431-1.487,3.621Zm-156.937-1.4c-.5-1.193-.973-2.414-1.415-3.629l.61-.222c.438,1.206.911,2.417,1.4,3.6Zm159.742-5.908-.616-.2c.4-1.22.787-2.466,1.135-3.706l.625.175c-.351,1.249-.737,2.5-1.144,3.734Zm-162.407-1.421c-.386-1.236-.749-2.5-1.078-3.754l.627-.165c.327,1.245.687,2.5,1.07,3.725Zm164.521-6.1-.632-.147c.29-1.25.556-2.527.789-3.794l.638.117C397.362,191.1,397.095,192.39,396.8,193.65Zm-166.5-1.458c-.27-1.267-.515-2.557-.728-3.837l.64-.106c.211,1.27.454,2.551.722,3.808Zm167.915-6.222-.643-.088c.174-1.27.322-2.566.438-3.85l.646.058C398.54,183.385,398.391,184.691,398.216,185.971ZM229.022,184.49c-.153-1.284-.279-2.592-.373-3.887l.647-.048c.094,1.286.219,2.583.371,3.858Zm169.9-6.295-.648-.029c.058-1.285.087-2.589.087-3.874h.649C399.009,175.587,398.979,176.9,398.921,178.195ZM228.452,176.7c-.022-.8-.033-1.607-.034-2.411q0-.749.013-1.495l.649.011q-.013.74-.013,1.483c0,.8.011,1.6.033,2.393Zm.782-7.767-.647-.041c.081-1.3.193-2.6.332-3.891l.645.07c-.138,1.276-.249,2.575-.329,3.861Zm168.707-3.957c-.13-1.279-.308-1.9-.5-3.175l.642-.095c.189,1.283.352,2.262.483,3.551Zm-167.873-3.746-.641-.1c.2-1.283.43-2.576.686-3.844l.636.129c-.254,1.258-.484,2.542-.681,3.815Zm166.722-3.248c-.247-1.265-.526-2.539-.83-3.786l.63-.153c.306,1.256.587,2.54.836,3.814ZM231.6,153.638l-.629-.158c.315-1.256.664-2.523,1.037-3.765l.621.187C232.263,151.135,231.917,152.391,231.6,153.638Zm163.353-3.183c-.362-1.235-.757-2.477-1.175-3.693l.613-.211c.421,1.225.82,2.477,1.184,3.721Zm-161.12-4.249-.612-.215c.431-1.226.9-2.458,1.383-3.662l.6.243c-.483,1.194-.945,2.417-1.373,3.634Zm158.6-3.079c-.473-1.194-.98-2.392-1.506-3.561l.592-.266c.53,1.178,1.041,2.385,1.518,3.588Zm-155.69-4.12-.589-.271c.542-1.18,1.118-2.363,1.714-3.516l.576.3C237.859,136.663,237.286,137.837,236.749,139.008Zm152.516-2.93c-.581-1.145-1.2-2.293-1.828-3.41l.564-.32c.638,1.126,1.257,2.282,1.842,3.436Zm-148.956-3.966-.562-.324c.647-1.124,1.329-2.248,2.028-3.342l.547.349C241.628,129.88,240.951,131,240.309,132.111Zm145.145-2.768c-.685-1.091-1.4-2.178-2.133-3.231l.533-.37c.736,1.061,1.459,2.156,2.15,3.256Zm-140.97-3.769-.53-.374c.748-1.061,1.53-2.118,2.324-3.142l.512.4C246,123.472,245.226,124.521,244.484,125.574Zm136.558-2.592c-.782-1.024-1.6-2.042-2.42-3.025l.5-.417c.83.991,1.651,2.016,2.438,3.048Zm-131.806-3.535-.494-.421c.839-.986,1.714-1.967,2.6-2.916l.474.442C250.937,117.495,250.069,118.468,249.236,119.447Zm126.83-2.4c-.871-.948-1.775-1.888-2.686-2.794l.457-.46c.918.912,1.828,1.859,2.706,2.815ZM254.524,113.78l-.454-.464c.928-.907,1.887-1.8,2.852-2.666l.432.484c-.958.855-1.91,1.745-2.831,2.646Zm116.046-2.2c-.955-.866-1.941-1.72-2.93-2.539l.414-.5c1,.825,1.99,1.685,2.952,2.558ZM260.3,108.62l-.41-.5c1-.817,2.04-1.623,3.082-2.395l.386.521c-1.034.766-2.063,1.566-3.058,2.377Zm6.221-4.611-.362-.538c1.074-.722,2.179-1.43,3.285-2.1l.337.554c-1.1.668-2.195,1.37-3.26,2.087Zm6.612-4.022-.311-.569c1.136-.622,2.3-1.225,3.462-1.793l.285.583C275.419,98.771,274.263,99.37,273.136,99.987Zm78.28-1.5c-1.154-.575-2.336-1.131-3.514-1.651l.262-.593c1.187.524,2.378,1.084,3.541,1.664Zm-71.333-1.9-.258-.6c1.187-.514,2.4-1.008,3.609-1.467l.23.607C282.466,95.589,281.261,96.078,280.083,96.589Zm64.231-1.243c-1.2-.466-2.43-.91-3.654-1.321l.207-.615c1.233.414,2.471.861,3.681,1.331Zm-57-1.5-.2-.616c1.233-.4,2.49-.785,3.738-1.131l.173.625c-1.238.343-2.486.721-3.709,1.122Zm49.641-.964c-1.237-.353-2.5-.681-3.75-.976l.149-.631c1.261.3,2.532.628,3.779.983Zm-42.174-1.108-.144-.632c1.264-.289,2.551-.552,3.826-.782l.115.638C297.316,91.222,296.039,91.483,294.785,91.769Zm34.633-.67c-1.263-.237-2.55-.448-3.824-.627l.09-.642c1.284.18,2.581.393,3.854.632Zm-27.008-.706-.086-.643c1.284-.171,2.59-.315,3.881-.428l.056.646C304.98,90.08,303.685,90.223,302.41,90.393Zm19.334-.372c-1.278-.12-2.578-.213-3.865-.275l.032-.648c1.3.063,2.607.156,3.895.278Zm-11.615-.3-.027-.648c1.192-.05,2.407-.075,3.611-.075h.294l0,.649h-.292c-1.2,0-2.4.025-3.584.075Z" transform="translate(-209.797 -88.996)" fill="#3f3d56"/><rect width="237.724" height="0.649" transform="translate(54.809 211.549)" fill="#3f3d56"/><path d="M663.193,405l3.243,50.269s7.784,19.783,7.459,38.594c0,0-2.919,7.459-.649,8.757s3.568,2.27,2.27,3.243-2.27,3.243-1.3,3.892,1.3,1.622.973,1.622h-9.729s1.946-4.865-.973-6.162-1.3-4.54-1.3-4.54L641.464,437.11l-17.189,58.377s2.919,1.946.649,2.919-3.243-.973-2.27.973-.324,2.919-.324,3.243-9.729-.973-9.729-.973,4.865-4.216,2.595-5.189-3.243-1.946-2.595-2.595,3.243-6.811,3.243-6.811,1.3-23.351,1.622-24.324,0-5.513,0-7.784-.324-11.351.649-13.621,1.946-30.161,7.135-33.4S663.193,405,663.193,405Z" transform="translate(-469.249 -302.51)" fill="#2f2e41"/><path d="M588.622,699.482s6.486,13.3,1.946,14.919-10.378.324-11.675,2.27-15.567,4.216-15.891-.649,15.567-13.946,15.567-13.946l2.07-3.333Z" transform="translate(-435.866 -500.992)" fill="#2f2e41"/><path d="M750.622,729.482s6.486,13.3,1.946,14.919-10.378.324-11.675,2.27-15.567,4.216-15.891-.649,15.567-13.946,15.567-13.946l2.07-3.333Z" transform="translate(-545.326 -521.263)" fill="#2f2e41"/><circle cx="10.702" cy="10.702" r="10.702" transform="translate(164.594 19.954)" fill="#a0616a"/><path d="M534.632,112.025l-1.3,9.405-9.729,7.459-2.595-3.567V113Z" transform="translate(-352.039 -75.693)" fill="#a0616a"/><path d="M660.659,232.616s10.054.973,15.243-2.595l10.378,61.3s-36.648,2.919-38.269.973V273.155l6.486-31.134Z" transform="translate(-493.309 -184.284)" fill="#3f3d56"/><path d="M711.412,220.985l3.488,2.931s14.27,2.27,13.3,6.162L724.3,276.13l1.3,15.567s-11.027-2.919-19.459,0-1.733-62.724-1.733-62.724S712.14,221.946,711.412,220.985Z" transform="translate(-529.711 -178.179)" fill="#d0cde1"/><path d="M656.2,231.931s-10.378,7.489-11.675,12.353-5.513,56.107-5.513,56.107,1.946-.973,2.919.649S657.821,234.5,656.2,231.931Z" transform="translate(-487.228 -185.575)" fill="#d0cde1"/><path d="M676.829,147.387a5.116,5.116,0,0,1-.713-3.61,10.94,10.94,0,0,0,.312-3.253A32.2,32.2,0,0,1,678.3,135.8c.936-1.693.49-2.406,3.431-2.941s1.738-4.367,9.492-.223a2.274,2.274,0,0,0,2.362.891c1.6-.312,2.184,1.916,2.184,1.916s1.07-.624,1.471.267,3.261-.535,3.261,5.481a24.908,24.908,0,0,1-3.254,11.39s.239-10.119-5.064-11.144-11.007-4.011-12.388-.178a29.213,29.213,0,0,1-2.963,6.127Z" transform="translate(-512.23 -117.197)" fill="#2f2e41"/><ellipse cx="1.046" cy="1.395" rx="1.046" ry="1.395" transform="translate(184.085 29.807)" fill="#a0616a"/><path d="M592.057,491.591a11.674,11.674,0,0,0-6.837-1.307,10.08,10.08,0,0,0,11.2,6.736A11.683,11.683,0,0,0,592.057,491.591Z" transform="translate(-450.882 -360.097)" fill="#d0cde1"/><path d="M602.549,588.87H586.509a3.609,3.609,0,1,0,0,7.218h16.039a3.609,3.609,0,1,0,0-7.218Z" transform="translate(-449.315 -426.753)" fill="#d0cde1"/><path d="M663.485,471.412H573.557a7.966,7.966,0,0,0-7.966,7.966v43.815a7.966,7.966,0,0,0,7.966,7.966h89.928a7.966,7.966,0,0,0,7.966-7.966V479.378a7.966,7.966,0,0,0-7.966-7.966Zm-92.153,5.434a10.993,10.993,0,0,1,12.757,7.675l.141.437-.452.08a12.008,12.008,0,0,1-1.951.143,11.62,11.62,0,0,1-5.924-1.493,12.583,12.583,0,0,1-4.881-6.325l-.141-.437Zm19.521,40.679H574.814a4.411,4.411,0,0,1,0-8.822h16.039a4.411,4.411,0,1,1,0,8.822Zm72.979-.8a4.826,4.826,0,0,1-4.812,4.812h-12.03a4.826,4.826,0,0,1-4.812-4.812v-7.218a4.826,4.826,0,0,1,4.812-4.812h12.03a4.826,4.826,0,0,1,4.812,4.812Z" transform="translate(-437.619 -347.388)" fill="#d0cde1"/><path d="M814.542,606.8h-5.213a1.4,1.4,0,0,0,0,2.807h5.213a1.4,1.4,0,0,0,0-2.807Zm0,2h-5.213a.6.6,0,1,1,0-1.2h5.213a.6.6,0,0,1,0,1.2Z" transform="translate(-601.361 -438.867)" fill="#d0cde1"/><path d="M844.215,606.8H839a1.4,1.4,0,0,0,0,2.807h5.213a1.4,1.4,0,0,0,0-2.807Zm0,2H839a.6.6,0,0,1,0-1.2h5.213a.6.6,0,1,1,0,1.2Z" transform="translate(-621.41 -438.867)" fill="#d0cde1"/><path d="M814.542,595.67h-5.213a1.4,1.4,0,0,0,0,2.807h5.213a1.4,1.4,0,0,0,0-2.807Zm0,2h-5.213a.6.6,0,0,1,0-1.2h5.213a.6.6,0,0,1,0,1.2Z" transform="translate(-601.361 -431.348)" fill="#d0cde1"/><path d="M844.215,595.67H839a1.4,1.4,0,0,0,0,2.807h5.213a1.4,1.4,0,0,0,0-2.807Zm0,2H839a.6.6,0,0,1,0-1.2h5.213a.6.6,0,0,1,0,1.2Z" transform="translate(-621.41 -431.348)" fill="#d0cde1"/><path d="M814.542,584.542h-5.213a1.4,1.4,0,0,0,0,2.807h5.213a1.4,1.4,0,0,0,0-2.807Zm0,2h-5.213a.6.6,0,1,1,0-1.2h5.213a.6.6,0,0,1,0,1.2Z" transform="translate(-601.361 -423.829)" fill="#d0cde1"/><path d="M844.215,584.542H839a1.4,1.4,0,0,0,0,2.807h5.213a1.4,1.4,0,0,0,0-2.807Zm0,2H839a.6.6,0,0,1,0-1.2h5.213a.6.6,0,1,1,0,1.2Z" transform="translate(-621.41 -423.829)" fill="#d0cde1"/><path d="M751.557,436.291l-2.325,7.586s-.594,14.143-8.378,12.2,2.27-18.486,2.27-18.486l2.27-3.567Z" transform="translate(-554.045 -322.124)" fill="#a0616a"/><path d="M615.557,436.291l-2.325,7.586s-.594,14.143-8.378,12.2,2.27-18.486,2.27-18.486l2.27-3.567Z" transform="translate(-462.152 -322.124)" fill="#a0616a"/><path d="M760.822,241.88s5.189-1.3,6.811,7.459,3.567,33.729,3.567,33.729l-7.784,26.27s-7.784-4.216-9.405-3.567l6.125-22.806-5.152-23.247S759.524,241.88,760.822,241.88Z" transform="translate(-564.931 -192.251)" fill="#d0cde1"/><path d="M580.747,209.393l6.811,22.7-6.811,23.026,3.892-23.026Z" transform="translate(-392.402 -141.483)" opacity="0.15"/><path d="M631.686,297.021l-11.675,46.053s6.159,2.033,8.429,3.654Z" transform="translate(-474.39 -229.555)" fill="#d0cde1"/><circle cx="32.432" cy="32.432" r="32.432" transform="translate(2.387 118.338)" fill="#3f3d56"/><circle cx="27.891" cy="27.891" r="27.891" transform="translate(6.928 122.878)" opacity="0.1"/><path d="M262.964,535.88V531.82a9.426,9.426,0,0,1-5.413-1.769l.849-2.693a8.653,8.653,0,0,0,5.095,1.728,3.9,3.9,0,0,0,4.21-3.939c0-2.211-1.38-3.577-4-4.783-3.609-1.608-5.838-3.457-5.838-6.953a6.32,6.32,0,0,1,5.343-6.471v-4.06h2.194v3.9a8.608,8.608,0,0,1,4.6,1.407l-.885,2.653a7.818,7.818,0,0,0-4.458-1.367,3.4,3.4,0,0,0-3.75,3.457c0,2.09,1.309,3.135,4.387,4.582,3.644,1.688,5.484,3.778,5.484,7.355a6.726,6.726,0,0,1-5.59,6.833v4.18Z" transform="translate(-229.481 -368.652)" fill="#ce9751"/><path d="M240.079,741.073a234.165,234.165,0,0,1-69.079,0v-7.784a260.207,260.207,0,0,0,69.079,0Z" transform="translate(-171 -524.334)" fill="#3f3d56"/><path d="M240.079,704.073a234.165,234.165,0,0,1-69.079,0v-7.784a260.209,260.209,0,0,0,69.079,0Z" transform="translate(-171 -499.334)" fill="#3f3d56"/><path d="M240.079,667.073a234.165,234.165,0,0,1-69.079,0v-7.784a260.209,260.209,0,0,0,69.079,0Z" transform="translate(-171 -474.334)" fill="#3f3d56"/></g><g transform="translate(205 32.215)"><circle cx="10.915" cy="10.915" r="10.915" transform="translate(34.036 54.312)" fill="url(#e)"/><path d="M259.669,515.8v-1.589a3.689,3.689,0,0,1-2.118-.692l.332-1.054a3.387,3.387,0,0,0,1.994.676,1.527,1.527,0,0,0,1.648-1.541c0-.865-.54-1.4-1.565-1.872-1.412-.629-2.285-1.353-2.285-2.721a2.473,2.473,0,0,1,2.091-2.533v-1.589h.858v1.526a3.369,3.369,0,0,1,1.8.55L262.079,506a3.06,3.06,0,0,0-1.745-.535,1.329,1.329,0,0,0-1.468,1.353c0,.818.512,1.227,1.717,1.793,1.426.661,2.146,1.479,2.146,2.879a2.632,2.632,0,0,1-2.188,2.674V515.8Z" transform="translate(-215.189 -444.11)" fill="#f3f3f3"/></g><g transform="translate(140.464 131.786)"><circle cx="7.205" cy="7.205" r="7.205" transform="translate(34.036 54.312)" fill="url(#e)"/><path d="M258.949,511.405v-1.049a2.435,2.435,0,0,1-1.4-.457l.219-.7a2.235,2.235,0,0,0,1.316.446,1.008,1.008,0,0,0,1.088-1.017c0-.571-.356-.924-1.033-1.236-.932-.415-1.508-.893-1.508-1.8a1.633,1.633,0,0,1,1.38-1.672v-1.049h.567v1.007a2.224,2.224,0,0,1,1.188.363l-.229.685a2.02,2.02,0,0,0-1.152-.353.877.877,0,0,0-.969.893c0,.54.338.81,1.133,1.184a1.981,1.981,0,0,1,1.417,1.9,1.738,1.738,0,0,1-1.444,1.765v1.08Z" transform="translate(-218.019 -445.626)" fill="#f3f3f3"/></g><g transform="translate(253.86 166.505)"><circle cx="17.949" cy="17.949" r="17.949" transform="translate(34.036 54.312)" fill="url(#e)"/><path d="M261.034,524.117V521.5a6.067,6.067,0,0,1-3.484-1.138l.546-1.733a5.568,5.568,0,0,0,3.279,1.112,2.511,2.511,0,0,0,2.709-2.535c0-1.423-.888-2.3-2.573-3.078-2.322-1.035-3.757-2.224-3.757-4.475a4.067,4.067,0,0,1,3.438-4.164v-2.612h1.412v2.509a5.54,5.54,0,0,1,2.96.905L265,508a5.031,5.031,0,0,0-2.869-.879,2.186,2.186,0,0,0-2.413,2.224c0,1.345.843,2.017,2.823,2.949,2.345,1.086,3.529,2.431,3.529,4.733a4.328,4.328,0,0,1-3.6,4.4v2.69Z" transform="translate(-209.824 -441.238)" fill="#f3f3f3"/></g><g transform="translate(27.449 87.505)"><circle cx="4.691" cy="4.691" r="4.691" transform="translate(34.036 54.312)" fill="url(#e)"/><path d="M258.461,508.431v-.683a1.586,1.586,0,0,1-.91-.3l.143-.453a1.455,1.455,0,0,0,.857.291.656.656,0,0,0,.708-.662c0-.372-.232-.6-.672-.8-.607-.27-.982-.581-.982-1.169a1.063,1.063,0,0,1,.9-1.088v-.683h.369v.656a1.448,1.448,0,0,1,.774.237l-.149.446a1.315,1.315,0,0,0-.75-.23.571.571,0,0,0-.631.581c0,.352.22.527.738.771a1.29,1.29,0,0,1,.922,1.237,1.131,1.131,0,0,1-.94,1.149v.7Z" transform="translate(-219.937 -446.653)" fill="#f3f3f3"/></g></g></g></g></svg>