<svg xmlns="http://www.w3.org/2000/svg" xmlns:xlink="http://www.w3.org/1999/xlink" width="292.533" height="237.382" viewBox="0 0 292.533 237.382"><defs><clipPath id="a"><rect width="292.533" height="237.382" fill="none"/></clipPath><linearGradient id="b" x1="0.5" x2="0.5" y2="1" gradientUnits="objectBoundingBox"><stop offset="0" stop-color="#ad712f"/><stop offset="1" stop-color="#f1bf75"/></linearGradient></defs><g clip-path="url(#a)"><g transform="translate(-41.734 -76.818)"><g transform="translate(41.734 86.527)"><path d="M964.622,681.973c-.021-.094-2.083-9.5,2.128-17.3s13.2-11.252,13.289-11.286l.411-.154.1.428c.021.094,2.083,9.5-2.128,17.3s-13.2,11.252-13.289,11.286l-.411.154Zm15.264-27.7c-1.8.774-8.906,4.164-12.462,10.759s-2.484,14.4-2.141,16.324c1.8-.773,8.9-4.157,12.462-10.759s2.483-14.394,2.142-16.324Z" transform="translate(-706.884 -470.239)" fill="#3f3d56"/><path d="M976.5,692.82c-7.567,4.552-10.481,13.595-10.481,13.595s9.354,1.661,16.921-2.891,10.481-13.595,10.481-13.595S984.061,688.267,976.5,692.82Z" transform="translate(-708.179 -494.837)" fill="#d0cde1"/><path d="M313.714,259.587c-.9,0-1.809-.014-2.7-.042l.02-.648c1.281.04,2.589.051,3.876.033l.009.649Q314.316,259.587,313.714,259.587Zm5.106-.15-.038-.647c1.283-.076,2.583-.182,3.862-.316l.068.645c-1.29.135-2.6.243-3.892.319Zm-11.706-.1c-1.294-.1-2.6-.229-3.886-.387l.079-.644c1.275.156,2.572.285,3.856.384Zm19.472-.713-.1-.641c1.275-.194,2.559-.418,3.817-.668l.126.636c-1.268.252-2.562.478-3.846.673Zm-27.222-.237c-1.278-.217-2.568-.466-3.834-.74l.138-.634c1.257.273,2.537.52,3.805.735Zm34.88-1.285-.156-.63c1.251-.309,2.51-.651,3.74-1.016l.184.622c-1.24.368-2.508.712-3.769,1.024Zm-42.51-.372c-1.254-.333-2.515-.7-3.75-1.091l.2-.618c1.225.387,2.477.751,3.721,1.082Zm50-1.849-.213-.613c1.214-.422,2.436-.879,3.63-1.357l.241.6c-1.2.482-2.434.942-3.658,1.367Zm-57.451-.508c-1.218-.448-2.443-.93-3.641-1.435l.252-.6c1.189.5,2.4.98,3.613,1.425Zm64.693-2.39-.269-.59c1.166-.53,2.338-1.1,3.484-1.681l.3.578c-1.155.59-2.336,1.16-3.511,1.694Zm6.94-3.548-.321-.563c1.118-.638,2.235-1.309,3.318-1.994l.346.548c-1.091.69-2.216,1.367-3.343,2.009Zm6.591-4.17-.371-.531c1.053-.736,2.1-1.506,3.123-2.29l.4.514c-1.027.79-2.086,1.566-3.148,2.307Zm-98.86-.913c-1.047-.76-2.093-1.557-3.109-2.368l.4-.507c1.008.8,2.046,1.6,3.085,2.35Zm105.047-3.842-.418-.5c.981-.828,1.958-1.691,2.9-2.565l.44.476c-.952.881-1.937,1.75-2.926,2.585Zm-111.152-1.033c-.975-.854-1.944-1.742-2.879-2.64l.449-.468c.928.891,1.89,1.773,2.857,2.62Zm116.884-4.268-.462-.455c.9-.917,1.8-1.866,2.66-2.82l.482.434c-.866.962-1.768,1.918-2.68,2.841ZM251.9,233.068c-.895-.941-1.778-1.913-2.626-2.89l.49-.425c.841.969,1.718,1.934,2.606,2.868ZM379.649,228.4l-.5-.412c.817-.995,1.622-2.021,2.393-3.052l.519.388C381.283,226.368,380.472,227.4,379.649,228.4Zm-132.863-1.231c-.8-1.015-1.594-2.063-2.351-3.115l.526-.379c.751,1.044,1.536,2.084,2.333,3.091Zm137.542-5.026-.537-.364c.723-1.065,1.432-2.161,2.106-3.259l.553.34C385.771,219.97,385.057,221.074,384.328,222.147Zm-142.1-1.307c-.707-1.083-1.4-2.2-2.056-3.314l.559-.329c.653,1.108,1.339,2.214,2.041,3.289Zm146.191-5.355-.568-.314c.623-1.127,1.228-2.284,1.8-3.44l.582.288c-.575,1.164-1.185,2.33-1.813,3.466Zm3.464-7.012-.594-.26c.517-1.18,1.013-2.389,1.475-3.593l.606.232c-.466,1.213-.966,2.431-1.487,3.621Zm-156.937-1.4c-.5-1.193-.973-2.414-1.415-3.629l.61-.222c.438,1.206.911,2.417,1.4,3.6Zm159.742-5.908-.616-.2c.4-1.22.787-2.466,1.135-3.706l.625.175c-.351,1.249-.737,2.5-1.144,3.734Zm-162.407-1.421c-.386-1.236-.749-2.5-1.078-3.754l.627-.165c.327,1.245.687,2.5,1.07,3.725Zm164.521-6.1-.632-.147c.29-1.25.556-2.527.789-3.794l.638.117C397.362,191.1,397.095,192.39,396.8,193.65Zm-166.5-1.458c-.27-1.267-.515-2.557-.728-3.837l.64-.106c.211,1.27.454,2.551.722,3.808Zm167.915-6.222-.643-.088c.174-1.27.322-2.566.438-3.85l.646.058C398.54,183.385,398.391,184.691,398.216,185.971ZM229.022,184.49c-.153-1.284-.279-2.592-.373-3.887l.647-.048c.094,1.286.219,2.583.371,3.858Zm169.9-6.295-.648-.029c.058-1.285.087-2.589.087-3.874h.649C399.009,175.587,398.979,176.9,398.921,178.195ZM228.452,176.7c-.022-.8-.033-1.607-.034-2.411q0-.749.013-1.495l.649.011q-.013.74-.013,1.483c0,.8.011,1.6.033,2.393Zm.782-7.767-.647-.041c.081-1.3.193-2.6.332-3.891l.645.07c-.138,1.276-.249,2.575-.329,3.861Zm168.707-3.957c-.13-1.279-.308-1.9-.5-3.175l.642-.095c.189,1.283.352,2.262.483,3.551Zm-167.873-3.746-.641-.1c.2-1.283.43-2.576.686-3.844l.636.129c-.254,1.258-.484,2.542-.681,3.815Zm166.722-3.248c-.247-1.265-.526-2.539-.83-3.786l.63-.153c.306,1.256.587,2.54.836,3.814ZM231.6,153.638l-.629-.158c.315-1.256.664-2.523,1.037-3.765l.621.187C232.263,151.135,231.917,152.391,231.6,153.638Zm163.353-3.183c-.362-1.235-.757-2.477-1.175-3.693l.613-.211c.421,1.225.82,2.477,1.184,3.721Zm-161.12-4.249-.612-.215c.431-1.226.9-2.458,1.383-3.662l.6.243c-.483,1.194-.945,2.417-1.373,3.634Zm158.6-3.079c-.473-1.194-.98-2.392-1.506-3.561l.592-.266c.53,1.178,1.041,2.385,1.518,3.588Zm-155.69-4.12-.589-.271c.542-1.18,1.118-2.363,1.714-3.516l.576.3C237.859,136.663,237.286,137.837,236.749,139.008Zm152.516-2.93c-.581-1.145-1.2-2.293-1.828-3.41l.564-.32c.638,1.126,1.257,2.282,1.842,3.436Zm-148.956-3.966-.562-.324c.647-1.124,1.329-2.248,2.028-3.342l.547.349C241.628,129.88,240.951,131,240.309,132.111Zm145.145-2.768c-.685-1.091-1.4-2.178-2.133-3.231l.533-.37c.736,1.061,1.459,2.156,2.15,3.256Zm-140.97-3.769-.53-.374c.748-1.061,1.53-2.118,2.324-3.142l.512.4C246,123.472,245.226,124.521,244.484,125.574Zm136.558-2.592c-.782-1.024-1.6-2.042-2.42-3.025l.5-.417c.83.991,1.651,2.016,2.438,3.048Zm-131.806-3.535-.494-.421c.839-.986,1.714-1.967,2.6-2.916l.474.442C250.937,117.495,250.069,118.468,249.236,119.447Zm126.83-2.4c-.871-.948-1.775-1.888-2.686-2.794l.457-.46c.918.912,1.828,1.859,2.706,2.815ZM254.524,113.78l-.454-.464c.928-.907,1.887-1.8,2.852-2.666l.432.484c-.958.855-1.91,1.745-2.831,2.646Zm116.046-2.2c-.955-.866-1.941-1.72-2.93-2.539l.414-.5c1,.825,1.99,1.685,2.952,2.558ZM260.3,108.62l-.41-.5c1-.817,2.04-1.623,3.082-2.395l.386.521c-1.034.766-2.063,1.566-3.058,2.377Zm6.221-4.611-.362-.538c1.074-.722,2.179-1.43,3.285-2.1l.337.554c-1.1.668-2.195,1.37-3.26,2.087Zm6.612-4.022-.311-.569c1.136-.622,2.3-1.225,3.462-1.793l.285.583C275.419,98.771,274.263,99.37,273.136,99.987Zm78.28-1.5c-1.154-.575-2.336-1.131-3.514-1.651l.262-.593c1.187.524,2.378,1.084,3.541,1.664Zm-71.333-1.9-.258-.6c1.187-.514,2.4-1.008,3.609-1.467l.23.607C282.466,95.589,281.261,96.078,280.083,96.589Zm64.231-1.243c-1.2-.466-2.43-.91-3.654-1.321l.207-.615c1.233.414,2.471.861,3.681,1.331Zm-57-1.5-.2-.616c1.233-.4,2.49-.785,3.738-1.131l.173.625c-1.238.343-2.486.721-3.709,1.122Zm49.641-.964c-1.237-.353-2.5-.681-3.75-.976l.149-.631c1.261.3,2.532.628,3.779.983Zm-42.174-1.108-.144-.632c1.264-.289,2.551-.552,3.826-.782l.115.638C297.316,91.222,296.039,91.483,294.785,91.769Zm34.633-.67c-1.263-.237-2.55-.448-3.824-.627l.09-.642c1.284.18,2.581.393,3.854.632Zm-27.008-.706-.086-.643c1.284-.171,2.59-.315,3.881-.428l.056.646C304.98,90.08,303.685,90.223,302.41,90.393Zm19.334-.372c-1.278-.12-2.578-.213-3.865-.275l.032-.648c1.3.063,2.607.156,3.895.278Zm-11.615-.3-.027-.648c1.192-.05,2.407-.075,3.611-.075h.294l0,.649h-.292c-1.2,0-2.4.025-3.584.075Z" transform="translate(-209.797 -88.996)" fill="#3f3d56"/><rect width="237.724" height="0.649" transform="translate(54.809 211.549)" fill="#3f3d56"/><path d="M663.193,405l3.243,50.269s7.784,19.783,7.459,38.594c0,0-2.919,7.459-.649,8.757s3.568,2.27,2.27,3.243-2.27,3.243-1.3,3.892,1.3,1.622.973,1.622h-9.729s1.946-4.865-.973-6.162-1.3-4.54-1.3-4.54L641.464,437.11l-17.189,58.377s2.919,1.946.649,2.919-3.243-.973-2.27.973-.324,2.919-.324,3.243-9.729-.973-9.729-.973,4.865-4.216,2.595-5.189-3.243-1.946-2.595-2.595,3.243-6.811,3.243-6.811,1.3-23.351,1.622-24.324,0-5.513,0-7.784-.324-11.351.649-13.621,1.946-30.161,7.135-33.4S663.193,405,663.193,405Z" transform="translate(-469.249 -302.51)" fill="#2f2e41"/><path d="M588.622,699.482s6.486,13.3,1.946,14.919-10.378.324-11.675,2.27-15.567,4.216-15.891-.649,15.567-13.946,15.567-13.946l2.07-3.333Z" transform="translate(-435.866 -500.992)" fill="#2f2e41"/><path d="M750.622,729.482s6.486,13.3,1.946,14.919-10.378.324-11.675,2.27-15.567,4.216-15.891-.649,15.567-13.946,15.567-13.946l2.07-3.333Z" transform="translate(-545.326 -521.263)" fill="#2f2e41"/><circle cx="10.702" cy="10.702" r="10.702" transform="translate(164.594 19.954)" fill="#a0616a"/><path d="M534.632,112.025l-1.3,9.405-9.729,7.459-2.595-3.567V113Z" transform="translate(-352.039 -75.693)" fill="#a0616a"/><path d="M660.659,232.616s10.054.973,15.243-2.595l10.378,61.3s-36.648,2.919-38.269.973V273.155l6.486-31.134Z" transform="translate(-493.309 -184.284)" fill="#3f3d56"/><path d="M711.412,220.985l3.488,2.931s14.27,2.27,13.3,6.162L724.3,276.13l1.3,15.567s-11.027-2.919-19.459,0-1.733-62.724-1.733-62.724S712.14,221.946,711.412,220.985Z" transform="translate(-529.711 -178.179)" fill="#d0cde1"/><path d="M656.2,231.931s-10.378,7.489-11.675,12.353-5.513,56.107-5.513,56.107,1.946-.973,2.919.649S657.821,234.5,656.2,231.931Z" transform="translate(-487.228 -185.575)" fill="#d0cde1"/><path d="M676.829,147.387a5.116,5.116,0,0,1-.713-3.61,10.94,10.94,0,0,0,.312-3.253A32.2,32.2,0,0,1,678.3,135.8c.936-1.693.49-2.406,3.431-2.941s1.738-4.367,9.492-.223a2.274,2.274,0,0,0,2.362.891c1.6-.312,2.184,1.916,2.184,1.916s1.07-.624,1.471.267,3.261-.535,3.261,5.481a24.908,24.908,0,0,1-3.254,11.39s.239-10.119-5.064-11.144-11.007-4.011-12.388-.178a29.213,29.213,0,0,1-2.963,6.127Z" transform="translate(-512.23 -117.197)" fill="#2f2e41"/><ellipse cx="1.046" cy="1.395" rx="1.046" ry="1.395" transform="translate(184.085 29.807)" fill="#a0616a"/><path d="M592.057,491.591a11.674,11.674,0,0,0-6.837-1.307,10.08,10.08,0,0,0,11.2,6.736A11.683,11.683,0,0,0,592.057,491.591Z" transform="translate(-450.882 -360.097)" fill="#d0cde1"/><path d="M602.549,588.87H586.509a3.609,3.609,0,1,0,0,7.218h16.039a3.609,3.609,0,1,0,0-7.218Z" transform="translate(-449.315 -426.753)" fill="#d0cde1"/><path d="M663.485,471.412H573.557a7.966,7.966,0,0,0-7.966,7.966v43.815a7.966,7.966,0,0,0,7.966,7.966h89.928a7.966,7.966,0,0,0,7.966-7.966V479.378a7.966,7.966,0,0,0-7.966-7.966Zm-92.153,5.434a10.993,10.993,0,0,1,12.757,7.675l.141.437-.452.08a12.008,12.008,0,0,1-1.951.143,11.62,11.62,0,0,1-5.924-1.493,12.583,12.583,0,0,1-4.881-6.325l-.141-.437Zm19.521,40.679H574.814a4.411,4.411,0,0,1,0-8.822h16.039a4.411,4.411,0,1,1,0,8.822Zm72.979-.8a4.826,4.826,0,0,1-4.812,4.812h-12.03a4.826,4.826,0,0,1-4.812-4.812v-7.218a4.826,4.826,0,0,1,4.812-4.812h12.03a4.826,4.826,0,0,1,4.812,4.812Z" transform="translate(-437.619 -347.388)" fill="#d0cde1"/><path d="M814.542,606.8h-5.213a1.4,1.4,0,0,0,0,2.807h5.213a1.4,1.4,0,0,0,0-2.807Zm0,2h-5.213a.6.6,0,1,1,0-1.2h5.213a.6.6,0,0,1,0,1.2Z" transform="translate(-601.361 -438.867)" fill="#d0cde1"/><path d="M844.215,606.8H839a1.4,1.4,0,0,0,0,2.807h5.213a1.4,1.4,0,0,0,0-2.807Zm0,2H839a.6.6,0,0,1,0-1.2h5.213a.6.6,0,1,1,0,1.2Z" transform="translate(-621.41 -438.867)" fill="#d0cde1"/><path d="M814.542,595.67h-5.213a1.4,1.4,0,0,0,0,2.807h5.213a1.4,1.4,0,0,0,0-2.807Zm0,2h-5.213a.6.6,0,0,1,0-1.2h5.213a.6.6,0,0,1,0,1.2Z" transform="translate(-601.361 -431.348)" fill="#d0cde1"/><path d="M844.215,595.67H839a1.4,1.4,0,0,0,0,2.807h5.213a1.4,1.4,0,0,0,0-2.807Zm0,2H839a.6.6,0,0,1,0-1.2h5.213a.6.6,0,0,1,0,1.2Z" transform="translate(-621.41 -431.348)" fill="#d0cde1"/><path d="M814.542,584.542h-5.213a1.4,1.4,0,0,0,0,2.807h5.213a1.4,1.4,0,0,0,0-2.807Zm0,2h-5.213a.6.6,0,1,1,0-1.2h5.213a.6.6,0,0,1,0,1.2Z" transform="translate(-601.361 -423.829)" fill="#d0cde1"/><path d="M844.215,584.542H839a1.4,1.4,0,0,0,0,2.807h5.213a1.4,1.4,0,0,0,0-2.807Zm0,2H839a.6.6,0,0,1,0-1.2h5.213a.6.6,0,1,1,0,1.2Z" transform="translate(-621.41 -423.829)" fill="#d0cde1"/><path d="M751.557,436.291l-2.325,7.586s-.594,14.143-8.378,12.2,2.27-18.486,2.27-18.486l2.27-3.567Z" transform="translate(-554.045 -322.124)" fill="#a0616a"/><path d="M615.557,436.291l-2.325,7.586s-.594,14.143-8.378,12.2,2.27-18.486,2.27-18.486l2.27-3.567Z" transform="translate(-462.152 -322.124)" fill="#a0616a"/><path d="M760.822,241.88s5.189-1.3,6.811,7.459,3.567,33.729,3.567,33.729l-7.784,26.27s-7.784-4.216-9.405-3.567l6.125-22.806-5.152-23.247S759.524,241.88,760.822,241.88Z" transform="translate(-564.931 -192.251)" fill="#d0cde1"/><path d="M580.747,209.393l6.811,22.7-6.811,23.026,3.892-23.026Z" transform="translate(-392.402 -141.483)" opacity="0.15"/><path d="M631.686,297.021l-11.675,46.053s6.159,2.033,8.429,3.654Z" transform="translate(-474.39 -229.555)" fill="#d0cde1"/><circle cx="32.432" cy="32.432" r="32.432" transform="translate(2.387 118.338)" fill="#3f3d56"/><circle cx="27.891" cy="27.891" r="27.891" transform="translate(6.928 122.878)" opacity="0.1"/><path d="M262.964,535.88V531.82a9.426,9.426,0,0,1-5.413-1.769l.849-2.693a8.653,8.653,0,0,0,5.095,1.728,3.9,3.9,0,0,0,4.21-3.939c0-2.211-1.38-3.577-4-4.783-3.609-1.608-5.838-3.457-5.838-6.953a6.32,6.32,0,0,1,5.343-6.471v-4.06h2.194v3.9a8.608,8.608,0,0,1,4.6,1.407l-.885,2.653a7.818,7.818,0,0,0-4.458-1.367,3.4,3.4,0,0,0-3.75,3.457c0,2.09,1.309,3.135,4.387,4.582,3.644,1.688,5.484,3.778,5.484,7.355a6.726,6.726,0,0,1-5.59,6.833v4.18Z" transform="translate(-229.481 -368.652)" fill="#ce9751"/><path d="M240.079,741.073a234.165,234.165,0,0,1-69.079,0v-7.784a260.207,260.207,0,0,0,69.079,0Z" transform="translate(-171 -524.334)" fill="#3f3d56"/><path d="M240.079,704.073a234.165,234.165,0,0,1-69.079,0v-7.784a260.209,260.209,0,0,0,69.079,0Z" transform="translate(-171 -499.334)" fill="#3f3d56"/><path d="M240.079,667.073a234.165,234.165,0,0,1-69.079,0v-7.784a260.209,260.209,0,0,0,69.079,0Z" transform="translate(-171 -474.334)" fill="#3f3d56"/></g><g transform="translate(15 26)"><circle cx="10.915" cy="10.915" r="10.915" transform="translate(34.036 54.312)" fill="url(#b)"/><path d="M259.669,515.8v-1.589a3.689,3.689,0,0,1-2.118-.692l.332-1.054a3.387,3.387,0,0,0,1.994.676,1.527,1.527,0,0,0,1.648-1.541c0-.865-.54-1.4-1.565-1.872-1.412-.629-2.285-1.353-2.285-2.721a2.473,2.473,0,0,1,2.091-2.533v-1.589h.858v1.526a3.369,3.369,0,0,1,1.8.55L262.079,506a3.06,3.06,0,0,0-1.745-.535,1.329,1.329,0,0,0-1.468,1.353c0,.818.512,1.227,1.717,1.793,1.426.661,2.146,1.479,2.146,2.879a2.632,2.632,0,0,1-2.188,2.674V515.8Z" transform="translate(-215.189 -444.11)" fill="#f3f3f3"/></g><g transform="translate(92.133 119.421)"><circle cx="7.205" cy="7.205" r="7.205" transform="translate(34.036 54.312)" fill="url(#b)"/><path d="M258.949,511.405v-1.049a2.435,2.435,0,0,1-1.4-.457l.219-.7a2.235,2.235,0,0,0,1.316.446,1.008,1.008,0,0,0,1.088-1.017c0-.571-.356-.924-1.033-1.236-.932-.415-1.508-.893-1.508-1.8a1.633,1.633,0,0,1,1.38-1.672v-1.049h.567v1.007a2.224,2.224,0,0,1,1.188.363l-.229.685a2.02,2.02,0,0,0-1.152-.353.877.877,0,0,0-.969.893c0,.54.338.81,1.133,1.184a1.981,1.981,0,0,1,1.417,1.9,1.738,1.738,0,0,1-1.444,1.765v1.08Z" transform="translate(-218.019 -445.626)" fill="#f3f3f3"/></g><g transform="translate(221.133 22.505)"><circle cx="17.949" cy="17.949" r="17.949" transform="translate(34.036 54.312)" fill="url(#b)"/><path d="M261.034,524.117V521.5a6.067,6.067,0,0,1-3.484-1.138l.546-1.733a5.568,5.568,0,0,0,3.279,1.112,2.511,2.511,0,0,0,2.709-2.535c0-1.423-.888-2.3-2.573-3.078-2.322-1.035-3.757-2.224-3.757-4.475a4.067,4.067,0,0,1,3.438-4.164v-2.612h1.412v2.509a5.54,5.54,0,0,1,2.96.905L265,508a5.031,5.031,0,0,0-2.869-.879,2.186,2.186,0,0,0-2.413,2.224c0,1.345.843,2.017,2.823,2.949,2.345,1.086,3.529,2.431,3.529,4.733a4.328,4.328,0,0,1-3.6,4.4v2.69Z" transform="translate(-209.824 -441.238)" fill="#f3f3f3"/></g><g transform="translate(285.067 141.505)"><circle cx="4.691" cy="4.691" r="4.691" transform="translate(34.036 54.312)" fill="url(#b)"/><path d="M258.461,508.431v-.683a1.586,1.586,0,0,1-.91-.3l.143-.453a1.455,1.455,0,0,0,.857.291.656.656,0,0,0,.708-.662c0-.372-.232-.6-.672-.8-.607-.27-.982-.581-.982-1.169a1.063,1.063,0,0,1,.9-1.088v-.683h.369v.656a1.448,1.448,0,0,1,.774.237l-.149.446a1.315,1.315,0,0,0-.75-.23.571.571,0,0,0-.631.581c0,.352.22.527.738.771a1.29,1.29,0,0,1,.922,1.237,1.131,1.131,0,0,1-.94,1.149v.7Z" transform="translate(-219.937 -446.653)" fill="#f3f3f3"/></g></g></g></svg>